<svg xmlns="http://www.w3.org/2000/svg" xmlns:xlink="http://www.w3.org/1999/xlink" width="414" height="896" viewBox="0 0 414 896">
  <defs>
    <clipPath id="clip-Accueil">
      <rect width="414" height="896"/>
    </clipPath>
  </defs>
  <g id="Accueil" clip-path="url(#clip-Accueil)">
    <rect width="414" height="896" fill="#fff"/>
    <g id="Groupe_171" data-name="Groupe 171">
      <g id="Groupe_170" data-name="Groupe 170" transform="translate(0 61)">
        <circle id="Ellipse_21" data-name="Ellipse 21" cx="201" cy="201" r="201" transform="translate(-71 256)" fill="rgba(151,203,203,0.74)" opacity="0.218"/>
        <circle id="Ellipse_22" data-name="Ellipse 22" cx="150" cy="150" r="150" transform="translate(186 535)" fill="#b4d8d8"/>
        <circle id="Ellipse_20" data-name="Ellipse 20" cx="137" cy="137" r="137" transform="translate(165 60)" fill="#d5e6e6"/>
      </g>
      <circle id="Ellipse_16" data-name="Ellipse 16" cx="119" cy="119" r="119" transform="translate(47 859)" fill="rgba(64,135,135,0.38)" opacity="0.189"/>
      <circle id="Ellipse_38" data-name="Ellipse 38" cx="119" cy="119" r="119" transform="translate(47 -21)" fill="rgba(64,135,135,0.38)" opacity="0.189"/>
    </g>
    <g id="logo_couleur" transform="translate(-71 320.779)" opacity="0">
      <path id="Tracé_13" data-name="Tracé 13" d="M23,5.922a.163.163,0,0,1,.133.044A69.339,69.339,0,0,1,30.551,4.9a72.37,72.37,0,0,1,7.6-.311A91.5,91.5,0,0,1,53.294,6.011c3.021.533,4.131,1.422,8.351,2,.222.044,3.6.622,4.131.666,0,0-3.465,2-10.439,2,0,0,.8.711,5.819.267C66,10.5,67.775,9.61,67.775,9.61c4.8,1.511,9.817,3.288,14.481,5.243q6.929,2.933,13.726,6.265a5.113,5.113,0,0,0,2.4.844c2.843,1.777,5.019,9.286,2.265,14l.489.489c2.754-2.844,2.088-8.531-.355-12.619,4,3.643,5.863,10.4,2.887,15.285,0,0,.267.267,1.466,1.644,2.354-2.844,2.665-9.464-.222-15.24,0,0,6.929,9.2,3.065,18.4,0,0,.755.844,1.51,1.733,2.354-3.732,1.821-5.376,1.6-7.776-.178-2.222-1.155-5.554.666-6.176.222.089-1.2-.178-.489,3.91.4,2.177,2.132,4.577,1.155,8.309-1.244,4.888,4.931,8.131,4.842,10,.755.755,1.555,1.466,2.354,2.177.489.4.977.8,1.421,1.2.489.4,1.022.755,1.51,1.155a25.232,25.232,0,0,0,3.776,2.488,11.266,11.266,0,0,0-2.265,0c-.977-.578-2.043-1.2-2.31-1.422-3.42-2.31-6-5.2-6.485-5.243-.622-.089-1.244-1.2-1.777-1.555-2.443.622-6.263.133-9.95-2.266-4.264-2.755-9.284-1.6-8.84-1.777,2.843-.844,7.551-.089,10.838,1.422,4.664,2.088,5.775.222,5.775.222-.222-.222-2.088-2.4-2.088-2.4-12.349-.133-22.565-2.71-31.4-9.731,3.021,2.4,15.147,6.8,27.229,6.576a6.241,6.241,0,0,0,1.377-.133s-.533-.622-1.11-1.244a10.768,10.768,0,0,1-.977-1.244,52.981,52.981,0,0,1-18.79-2.222c-5.508-1.644-9.906-3.91-12.127-6.087,4.664.489,8.44-.444,12.26-1.422,2.754-.711,4.4,1.2,5.242,3.332a16.073,16.073,0,0,0,.267-6.709c-.267-2.444-3.287-4.888-6.574-5.6-2.31-.489-3.82-.622-5.73-1.822-.711,0-1.732-.355-1.777.622-.044.8-1.288,2.088-3.154,1.111-4.62-2.4-5.552-.755-6.974-3.11,3.82,1.111,4.842-1.333,7.907,0,1.022.444,1.066-.622,1.066-1.155a6.647,6.647,0,0,0-.489-.578,7.568,7.568,0,0,0-4.709-1.866c-3.776-.533-7.285-1.111-11.327-.044-3.331.889-7.551,3.643-10.172,2-8.44-5.376-11.416-6-16.124-8.309,4.309,1.644,10.261-.933,18.923.622,0,0,1.777.444-2.31-.622-5.064-.622-9.062.089-12.171-.089a33.614,33.614,0,0,1-6.219-.978,27.648,27.648,0,0,0-8.218-3.332h0A.163.163,0,0,1,23,5.922Z" transform="translate(-14.357 -4.483)" fill="#c0cfc5"/>
      <g id="Groupe_2" data-name="Groupe 2">
        <path id="Tracé_14" data-name="Tracé 14" d="M121.458,51.921a17.115,17.115,0,0,1-5.064,3.643,16.452,16.452,0,0,1-5.908,1.733,19.339,19.339,0,0,1-6.174-.444A28.193,28.193,0,0,1,98.4,54.809c-.933-.444-1.91-.933-2.754-1.422a22.755,22.755,0,0,1-2.488-1.733l-.133-.133a92.966,92.966,0,0,0,12.7-2.8,42.846,42.846,0,0,0,6.574-2.577,24.481,24.481,0,0,0,6.263-4.266,15.075,15.075,0,0,0,2.576-3.2,9.4,9.4,0,0,0,.489-.933l.222-.489.222-.489a6.907,6.907,0,0,0,.355-1.022c.133-.355.178-.666.267-.978a14.181,14.181,0,0,0-.444-8.131,17.165,17.165,0,0,0-4.486-6.532,31.291,31.291,0,0,0-5.952-4.266,63.054,63.054,0,0,0-12.837-5.154c-2.177-.622-4.353-1.2-6.53-1.688S88.1,8.022,85.878,7.666a122.137,122.137,0,0,0-13.37-1.688A93.068,93.068,0,0,0,58.87,5.933,48.572,48.572,0,0,0,45.145,8.821c-1.11.444-2.221.978-3.287,1.511-1.022.533-2,1.111-3.021,1.777a25.82,25.82,0,0,0-2.932,2.133,15.583,15.583,0,0,0-2.754,2.888,8.87,8.87,0,0,0-1.066,2.044,7.063,7.063,0,0,0-.444,2.622,6.745,6.745,0,0,0,.666,2.666,6.858,6.858,0,0,0,1.466,2,12.181,12.181,0,0,0,3.465,2.4,13.094,13.094,0,0,0,1.821.755c.311.089.622.222.933.311a9.991,9.991,0,0,0,.977.222c1.244.267,2.354.4,3.465.533s2.221.267,3.287.355c2.177.222,4.264.489,6.4.8a65.894,65.894,0,0,1,12.171,3.021,39.506,39.506,0,0,1,5.552,2.577A38.777,38.777,0,0,1,76.86,40.9a74.79,74.79,0,0,1,5.6,5.065c-1.288.133-2.621.267-3.909.4-8.573.755-17.235,1.022-25.941,1.2l-3.287.089c-1.066,0-2.132.044-3.243.044-2.132,0-4.264-.044-6.4-.089A83.686,83.686,0,0,1,27.11,46.322a50.706,50.706,0,0,1-5.952-1.511,26.086,26.086,0,0,1-2.8-1.066,29.027,29.027,0,0,1-2.621-1.333A18.242,18.242,0,0,1,11.3,38.9c-.311-.355-.622-.711-.888-1.066l-.222-.267-.133-.178-.089-.133c-.133-.178-.222-.355-.355-.533A10.311,10.311,0,0,1,8.543,34.37a8.782,8.782,0,0,1,0-5.021,12.854,12.854,0,0,1,2.754-4.71,23.837,23.837,0,0,1,4.486-3.91c.844-.578,1.688-1.155,2.621-1.688.444-.267.888-.533,1.377-.8l1.377-.8a98.639,98.639,0,0,1,11.594-5.465,106.964,106.964,0,0,1,12.26-4.043A94.924,94.924,0,0,1,57.76,5.489c2.177-.267,4.309-.444,6.485-.533,1.066-.044,2.177-.044,3.287,0s2.177.089,3.243.222a40.274,40.274,0,0,0-6.53-.755,64.893,64.893,0,0,0-6.574.044,92.653,92.653,0,0,0-13.1,1.644,104.594,104.594,0,0,0-25.053,8.4A37.254,37.254,0,0,0,8.232,22.062,16.4,16.4,0,0,0,4.367,28.15a12.75,12.75,0,0,0-.444,7.6A14.781,14.781,0,0,0,5.3,39.258c.178.267.311.533.489.844l.222.355.267.355a17.41,17.41,0,0,0,1.11,1.422A24.925,24.925,0,0,0,12.852,46.9c1.022.622,2.043,1.2,3.109,1.733,1.066.489,2.132.978,3.243,1.377a49.573,49.573,0,0,0,6.663,1.911A93.324,93.324,0,0,0,39.281,53.7c2.221.133,4.442.222,6.707.267,1.11.044,2.221.044,3.331.044h3.287c8.751,0,17.59-.133,26.43-.755q4.864-.333,9.728-.933c.755.666,1.555,1.289,2.4,1.911A24.832,24.832,0,0,0,94.1,56.053,31.649,31.649,0,0,0,97.2,57.431a32.383,32.383,0,0,0,6.53,1.866,19.908,19.908,0,0,0,6.885.044,17.9,17.9,0,0,0,6.4-2.355,23.518,23.518,0,0,0,5.108-4.221,27,27,0,0,0,4.709-7.109C124.7,48.633,124.523,48.5,121.458,51.921Zm-34.47-6.309a98.73,98.73,0,0,0-7.418-7.554,45.827,45.827,0,0,0-5.419-4.132,41.624,41.624,0,0,0-6.086-3.155,64.481,64.481,0,0,0-13.059-3.777c-2.221-.4-4.4-.755-6.574-1.066l-3.2-.444c-1.066-.178-2.088-.311-2.976-.533a8.886,8.886,0,0,1-4.175-2.177c-.178-.222-.311-.444-.4-.578a.731.731,0,0,1-.089-.4,2.126,2.126,0,0,1,.577-1.2A8.987,8.987,0,0,1,39.9,18.908a18.22,18.22,0,0,1,2.354-1.6c.844-.489,1.732-.978,2.621-1.466.888-.444,1.732-.8,2.621-1.155a44.554,44.554,0,0,1,11.86-2.266,85.047,85.047,0,0,1,12.571.222,121.205,121.205,0,0,1,12.615,1.733c2.088.4,4.131.844,6.219,1.333s4.087,1.022,6.13,1.644a56.974,56.974,0,0,1,11.327,4.577,23.624,23.624,0,0,1,4.531,3.244,10.265,10.265,0,0,1,2.71,3.866,7.572,7.572,0,0,1,.222,4.354c-.044.178-.089.4-.133.533a2.166,2.166,0,0,1-.178.489l-.089.222-.133.222a3.905,3.905,0,0,1-.267.444,8.608,8.608,0,0,1-1.421,1.777,16.516,16.516,0,0,1-4.442,2.977,43.049,43.049,0,0,1-5.508,2.177,88.954,88.954,0,0,1-12.215,2.8C89.875,45.256,88.41,45.434,86.988,45.611Z" transform="translate(-3.542 -4.361)" fill="#3d726a"/>
        <ellipse id="Ellipse_2" data-name="Ellipse 2" cx="1.866" cy="1.866" rx="1.866" ry="1.866" transform="translate(112.052 56.18)" fill="#3d726a"/>
      </g>
      <g id="signature_2_" transform="translate(118.964 24.632)">
        <path id="Tracé_15" data-name="Tracé 15" d="M360.839,76.594l-2,.355-4.442.844-4.4.889-4.4.933c-2.621.578-5.2,1.155-7.773,1.777.355-.666.755-1.377,1.155-2.044a1.8,1.8,0,0,0,.489,0,3.8,3.8,0,0,0,2.043-.933,7.82,7.82,0,0,0,1.288-1.466,26.766,26.766,0,0,0,2-3.155,20.743,20.743,0,0,0,2.221-6.931c.044-.178-.089-.355-.267-.489a.735.735,0,0,0-.844.133h0c-2,2.622-3.909,5.287-5.686,8-.8,1.244-1.6,2.488-2.354,3.777l-.089-.089a9.17,9.17,0,0,1-1.244-1.377,28.662,28.662,0,0,1-2.088-3.066,27.855,27.855,0,0,1-1.555-3.288,19.73,19.73,0,0,1-.844-2.755c1.2-1.111,2.354-2.222,3.465-3.377l-3.6,2.844c0-.044,0-.089-.044-.089v.089L328.99,69.44l-3.243,2.577c-1.066.844-2.177,1.688-3.243,2.533l-3.287,2.533-3.287,2.533a4.72,4.72,0,0,0-.489.4c.711-1.422,1.421-2.8,2.177-4.177.267-.133.489-.311.711-.444a12.515,12.515,0,0,0,3.731-4.221,16.18,16.18,0,0,0,1.732-5.11h0v-.222a.708.708,0,0,0-.4-.533c3.776-.666,7.551-1.289,11.371-1.777,3.287-.4,6.574-.755,9.861-.978,1.644-.089,3.287-.222,4.931-.267.844,0,1.644-.089,2.488-.044a6.9,6.9,0,0,1,.933.178h0a.155.155,0,0,1,.089-.044l.089-.089h0v-.044a4.562,4.562,0,0,0-1.111-.311,15.527,15.527,0,0,0-2.487-.089c-1.644-.044-3.331,0-4.975,0-3.287.089-6.619.222-9.906.533s-6.574.666-9.861,1.155-6.53,1.022-9.817,1.6c-.089,0-.133.044-.222.044.178-.444.311-.889.444-1.333h0l1.2-3.066a.862.862,0,0,0-.133-.8.457.457,0,0,0-.755.044h0a11.543,11.543,0,0,0-1.377,3.288,4.958,4.958,0,0,1-1.111,2.222c-.666.133-1.288.267-1.954.4a4.125,4.125,0,0,1-.577-.178c-.444-.133-.844-.355-1.333-.533l-1.377-.578a35.118,35.118,0,0,0-11.371-2.355c-.977-.089-1.91-.044-2.887-.044-.977.044-1.91.089-2.887.222-.977.089-1.91.267-2.843.444-.489.089-.933.222-1.421.311l-.711.178-.711.222a33.056,33.056,0,0,0-5.508,2.044l-1.333.622a8,8,0,0,0-1.377.889,4.631,4.631,0,0,0-1.2,1.511,3.436,3.436,0,0,0-.355,1.2,3.642,3.642,0,0,0,.133,1.377,1.057,1.057,0,0,0,.4.578h0a9.6,9.6,0,0,0,5.2,1.511,24.074,24.074,0,0,0,2.532-.044c.844-.044,1.688-.133,2.487-.222a4.894,4.894,0,0,1,.8-.089,14.3,14.3,0,0,0-1.688,1.555l-.222.222v-.044c0,.044-.044.044-.044.089-.4.444-.844.933-1.2,1.377-.444.578-.888,1.155-1.288,1.777a14.248,14.248,0,0,0-.844,1.377q-1.466.267-2.932.666a22.806,22.806,0,0,0,2.443.267l-.4.8c-.089.133-.222.311-.311.444-1.555,2.222-3.109,4.532-5.242,6.087-.267.178-.533.355-.844.533l-.444.222a.773.773,0,0,1-.311.133h0a.261.261,0,0,1-.089-.222.887.887,0,0,1-.089-.4,15.4,15.4,0,0,1-.178-3.777,16.821,16.821,0,0,1,2.532-7.42,13.5,13.5,0,0,0-4,7.287,12.916,12.916,0,0,0-.133,4.132,1.369,1.369,0,0,0,.133.578,1.633,1.633,0,0,0,.355.666,1.98,1.98,0,0,0,.888.622,2.389,2.389,0,0,0,1.111.044,7.185,7.185,0,0,0,.755-.267l.533-.267c.355-.222.666-.4,1.022-.622a15.342,15.342,0,0,0,3.154-3.2,33.636,33.636,0,0,0,2.221-3.555c.311-.622.666-1.2.977-1.822h.666a38.957,38.957,0,0,0,4.575-.222c-.178.578-.355,1.155-.577,1.733l-.8,2.355c-.267.8-.489,1.6-.711,2.4a14.881,14.881,0,0,0-.489,2.444l-.089.622-.044.622V90.5c.089.044.133.089.222.133V90.59l.089-.311.178-.578.222-.578c.267-.755.577-1.555.888-2.31s.666-1.511,1.022-2.266l1.022-2.266c.355-.8.666-1.555.977-2.355.888-.133,1.777-.267,2.621-.4a.824.824,0,0,1-.089.311,12.916,12.916,0,0,0-.133,4.132,1.369,1.369,0,0,0,.133.578,1.633,1.633,0,0,0,.355.666,1.981,1.981,0,0,0,.888.622,2.389,2.389,0,0,0,1.111.044,7.19,7.19,0,0,0,.755-.267l.533-.267c.355-.222.666-.4,1.022-.622a15.343,15.343,0,0,0,3.154-3.2,33.642,33.642,0,0,0,2.221-3.555,51.219,51.219,0,0,0,3.376-7.465c-1.644,2.266-3.109,4.577-4.664,6.843-1.555,2.222-3.109,4.532-5.242,6.087-.267.178-.533.355-.844.533l-.444.222a.773.773,0,0,1-.311.133h0a.261.261,0,0,1-.089-.222.887.887,0,0,1-.089-.4,15.4,15.4,0,0,1-.178-3.777,4.378,4.378,0,0,1,.089-.755,19.917,19.917,0,0,0,3.065-.889c-.977-.089-1.91-.133-2.887-.133a17.733,17.733,0,0,1,2.265-5.687,13.262,13.262,0,0,0-3.554,5.687h-.444c-.666,0-1.333.044-2,.089.089-.267.133-.489.222-.755a10.24,10.24,0,0,0,.267-1.244,11.985,11.985,0,0,0,.178-1.244,6.784,6.784,0,0,0,.044-1.377,2.89,2.89,0,0,0-.489-1.333c1.821-.355,3.6-.711,5.375-1.111l9.684-2.266c2.132-.489,4.309-.978,6.441-1.422a3.156,3.156,0,0,0,.888-.178l-.311.8-2.265,6.309c.267-1.777.489-3.51.622-5.287-.355,2.044-.8,4.088-1.244,6.087a5.444,5.444,0,0,1-1.644-.933h0a.837.837,0,0,0-.4-.178.784.784,0,0,0-.844.578c-.133.978-.267,1.955-.355,2.888-.089.978-.133,1.955-.178,2.933a42.521,42.521,0,0,0,.178,4.754c-.666,1.866-1.333,3.777-2,5.687-3.42,1.155-6.8,2.355-10.172,3.643a.758.758,0,0,0-.533.933.969.969,0,0,0,1.155.533h0L305.315,93.7c1.288-.311,2.576-.578,3.865-.844-.222.666-.4,1.333-.622,2h0c0,.044,0,.089.089.133.044,0,.133,0,.133-.044h0c.267-.711.577-1.422.844-2.133a39.178,39.178,0,0,1,5.952-.844,21.413,21.413,0,0,1,5.064.267,14.29,14.29,0,0,1,4.575,1.555,8.5,8.5,0,0,1,3.154,2.977,5.474,5.474,0,0,1,.622,1.377,9.271,9.271,0,0,0,.133,2.71.816.816,0,0,0,.755.622.955.955,0,0,0,1.111-.622h0a6.332,6.332,0,0,0-.089-2.888,11.258,11.258,0,0,1,.311-1.688,26.374,26.374,0,0,1,1.555-4.31c1.244-2.888,2.621-5.732,4.087-8.575.178-.311.311-.622.489-.933,2.843-.755,5.73-1.511,8.573-2.222l4.353-1.066,4.353-1.022,4.4-.978,1.91-.4v-.044c-.089-.044-.089-.089-.089-.133Zm-19.323-1.555q1.866-2.933,3.865-5.865A21.759,21.759,0,0,1,342.05,76.5a11.552,11.552,0,0,1-1.155,1.422,2.772,2.772,0,0,1-1.555.8h-.089C340.006,77.482,340.762,76.283,341.517,75.039Zm-68.1,13.552Zm20.566-4.177Zm-5.019-9.509a10.392,10.392,0,0,1-.178,1.155,10.588,10.588,0,0,1-.222,1.155,11.91,11.91,0,0,1-.311,1.2c-.222,0-.444.044-.711.044q-2.2.2-4.4.533a3.848,3.848,0,0,0,.311-.444,31.9,31.9,0,0,1,2.887-3.11c.533-.489,1.066-.978,1.6-1.377a5.3,5.3,0,0,1,.977-.533A4.727,4.727,0,0,1,288.968,74.905Zm6.485-5.687a92.255,92.255,0,0,1-9.684,1.733c-.8.089-1.644.178-2.443.222a21.808,21.808,0,0,1-2.4.044,8.4,8.4,0,0,1-4.042-1.022h0a.994.994,0,0,1,.133-.444,3.673,3.673,0,0,1,.755-.933,4.464,4.464,0,0,1,1.066-.711l1.288-.622a32.886,32.886,0,0,1,5.286-1.955,37.2,37.2,0,0,1,5.464-1.111c.933-.133,1.866-.178,2.754-.267.933,0,1.866-.089,2.8,0a37.361,37.361,0,0,1,11.016,2.088l.666.267C303.849,67.352,299.629,68.285,295.453,69.218ZM317,80.637c1.111-.844,2.177-1.733,3.243-2.577,1.066-.889,2.132-1.733,3.2-2.622s2.088-1.777,3.109-2.666,2.043-1.822,3.065-2.755c.8-.755,1.6-1.466,2.4-2.222a20.883,20.883,0,0,0,2.088,6.132,24.841,24.841,0,0,0,1.821,2.933h-.489l-.933-.044h-1.866l-.933.089c-.311.044-.622.044-.933.089l-.933.133-.933.133-.933.178c-.622.089-1.2.222-1.821.355-1.2.267-2.4.578-3.554.933s-2.31.755-3.465,1.2c-.888.355-1.732.711-2.576,1.066A1.74,1.74,0,0,1,317,80.637Zm2.532-8.575,1.51-2.844.489-.889c.044-.089.089-.133.089-.178a15.721,15.721,0,0,1-1.022,2.355C320.284,71,319.929,71.528,319.529,72.062Zm-6.219-3.377.622-1.555c.444-.089.844-.178,1.288-.267,2.221-.444,4.486-.889,6.707-1.333l-.4.267a5.034,5.034,0,0,0-1.377,1.911l-.444.933-1.821,3.643c-.4.755-.755,1.511-1.11,2.31a9.468,9.468,0,0,1-4.087,1.2,7.451,7.451,0,0,1-2-.178Zm-4.264,9.153c-.044.222-.133.489-.178.711l-1.288,3.643c0-.533.044-1.022.044-1.555.044-.933.133-1.911.222-2.844.044-.578.133-1.155.222-1.733a6.33,6.33,0,0,0,1.244.578ZM304.515,90.99c.666-1.644,1.333-3.288,1.954-4.932a1.23,1.23,0,0,0,.044.4h0a.521.521,0,0,0,.4.444.514.514,0,0,0,.666-.355c.4-1.422.8-2.844,1.111-4.266.355-1.422.666-2.888.933-4.31h0l.4-1.022a8.482,8.482,0,0,0,2.576.267,10.1,10.1,0,0,0,3.021-.578c-.489,1.022-.933,2-1.421,3.021-.267.578-.533,1.2-.8,1.822-1.377,1.066-2.8,2.088-4.22,3.155h0a.6.6,0,0,0-.133.889.881.881,0,0,0,1.111.178c.622-.355,1.244-.666,1.866-1.022-.355.844-.666,1.644-1.022,2.488-.222.622-.489,1.244-.711,1.866C308.424,89.7,306.469,90.323,304.515,90.99Zm2.8.622c.8-.267,1.644-.578,2.443-.844-.044.133-.089.222-.133.355C308.868,91.257,308.113,91.434,307.313,91.612Zm23.676-.222a36.728,36.728,0,0,0-1.51,3.866,10.8,10.8,0,0,0-3.287-2.844,16.711,16.711,0,0,0-5.242-1.822,23.664,23.664,0,0,0-5.6-.267,37.544,37.544,0,0,0-5.064.666c.044-.133.133-.311.178-.444l1.2-.4c5.6-1.866,11.238-3.643,16.924-5.287,2.177-.622,4.353-1.244,6.53-1.822C333.61,85.791,332.233,88.591,330.989,91.39Zm4.753-9.553c-2.532.622-5.064,1.289-7.6,1.955-5.686,1.555-11.327,3.2-16.924,4.976.178-.444.4-.889.622-1.333.533-1.155,1.066-2.31,1.644-3.466,1.022-.533,2-1.022,3.021-1.555,1.066-.489,2.132-1.022,3.243-1.466,1.066-.444,2.177-.889,3.331-1.289.577-.178,1.11-.4,1.688-.578l1.732-.533c.577-.178,1.155-.311,1.732-.444s1.155-.267,1.777-.4l.888-.178c.311-.044.622-.089.888-.133l.888-.133.888-.089a6.625,6.625,0,0,1,.933-.089l.933-.044c.178,0,.4-.044.577-.044a.155.155,0,0,1,.044.089,9.83,9.83,0,0,0,1.288,1.466.969.969,0,0,1,.222.178C336.941,79.748,336.32,80.815,335.742,81.837Z" transform="translate(-271.36 -59.797)" fill="#604b3b"/>
      </g>
      <g id="creation_1_" transform="translate(71.542 58.891)">
        <path id="Tracé_16" data-name="Tracé 16" d="M166.155,149.009a3.316,3.316,0,0,1-1.155-1.2,3.822,3.822,0,0,1-.4-1.733,3.567,3.567,0,0,1,.4-1.733,2.744,2.744,0,0,1,1.155-1.2,3.533,3.533,0,0,1,1.688-.444,3.619,3.619,0,0,1,1.377.267,2.568,2.568,0,0,1,1.022.8l-.178.178a2.024,2.024,0,0,0-.977-.755,3.037,3.037,0,0,0-1.288-.267,3,3,0,0,0-1.555.4,2.575,2.575,0,0,0-1.066,1.111,3.58,3.58,0,0,0,0,3.288,2.854,2.854,0,0,0,1.066,1.111,3,3,0,0,0,1.555.4,3.185,3.185,0,0,0,1.288-.267,2.754,2.754,0,0,0,.977-.755l.178.178a2.568,2.568,0,0,1-1.022.8,3.46,3.46,0,0,1-1.377.267A4.125,4.125,0,0,1,166.155,149.009Z" transform="translate(-164.6 -140.123)" fill="#604b3b"/>
        <path id="Tracé_17" data-name="Tracé 17" d="M187.1,143.044a2.9,2.9,0,0,1,1.688-.444v.267H188.7a2.407,2.407,0,0,0-1.866.755,3.1,3.1,0,0,0-.666,2.088v3.6H185.9V142.6h.267v1.733A2.5,2.5,0,0,1,187.1,143.044Z" transform="translate(-176.439 -140.067)" fill="#604b3b"/>
        <path id="Tracé_18" data-name="Tracé 18" d="M203.664,145.7a2.754,2.754,0,0,0,.977-.755l.178.178a3.064,3.064,0,0,1-1.066.8,3.619,3.619,0,0,1-1.377.267,3.358,3.358,0,0,1-1.732-.444,3.864,3.864,0,0,1-1.2-1.2A3.361,3.361,0,0,1,199,142.81a3.567,3.567,0,0,1,.4-1.733,3.316,3.316,0,0,1,1.155-1.2,2.946,2.946,0,0,1,1.644-.444,2.841,2.841,0,0,1,1.51.4,3.063,3.063,0,0,1,1.066,1.066,3.515,3.515,0,0,1,.444,1.511l-5.863,1.155a3.028,3.028,0,0,0,3.021,2.4A3.186,3.186,0,0,0,203.664,145.7Zm-2.976-5.6a2.854,2.854,0,0,0-1.066,1.111,3.147,3.147,0,0,0-.355,1.6,2.534,2.534,0,0,0,.044.578l5.641-1.111a2.9,2.9,0,0,0-1.421-2.177,2.713,2.713,0,0,0-1.333-.355A2.468,2.468,0,0,0,200.688,140.1Zm2.576-3.2h.533l-1.954,1.422h-.4Z" transform="translate(-183.72 -136.9)" fill="#604b3b"/>
        <path id="Tracé_19" data-name="Tracé 19" d="M247.687,147.187a1.826,1.826,0,0,1-.577.355,2.011,2.011,0,0,1-.711.133,1.482,1.482,0,0,1-1.2-.444,1.779,1.779,0,0,1-.4-1.2V139.5h.267v1.466h2.265v.267h-2.265v4.71a1.463,1.463,0,0,0,.355,1.066,1.254,1.254,0,0,0,1.022.355,1.624,1.624,0,0,0,1.11-.4Z" transform="translate(-209.175 -138.345)" fill="#604b3b"/>
        <path id="Tracé_20" data-name="Tracé 20" d="M259.3,142.7h.267v6.709H259.3Z" transform="translate(-217.234 -140.123)" fill="#604b3b"/>
        <path id="Tracé_21" data-name="Tracé 21" d="M270.355,149.009a3.316,3.316,0,0,1-1.155-1.2,3.691,3.691,0,0,1-.4-1.733,3.567,3.567,0,0,1,.4-1.733,3,3,0,0,1,1.155-1.2,3.262,3.262,0,0,1,3.287,0,3.316,3.316,0,0,1,1.155,1.2,3.691,3.691,0,0,1,.4,1.733,3.567,3.567,0,0,1-.4,1.733,3,3,0,0,1-1.155,1.2,3.048,3.048,0,0,1-1.644.444A3.5,3.5,0,0,1,270.355,149.009Zm3.2-.222a2.854,2.854,0,0,0,1.066-1.111,3.58,3.58,0,0,0,0-3.288,2.854,2.854,0,0,0-1.066-1.111,3.052,3.052,0,0,0-3.021,0,2.854,2.854,0,0,0-1.066,1.111,3.58,3.58,0,0,0,0,3.288,2.854,2.854,0,0,0,1.066,1.111,3.052,3.052,0,0,0,3.021,0Z" transform="translate(-222.515 -140.123)" fill="#604b3b"/>
        <path id="Tracé_22" data-name="Tracé 22" d="M228.8,145.977a3.567,3.567,0,0,0-.4-1.733,2.744,2.744,0,0,0-1.155-1.2,3.262,3.262,0,0,0-3.287,0,3.316,3.316,0,0,0-1.155,1.2,3.691,3.691,0,0,0-.4,1.733,3.567,3.567,0,0,0,.4,1.733,3,3,0,0,0,1.155,1.2,3.262,3.262,0,0,0,3.287,0,3.316,3.316,0,0,0,1.155-1.2c.044-.133.133-.222.178-.355v1.955h.267v-3.332Zm-.622,1.644a2.854,2.854,0,0,1-1.066,1.111,2.953,2.953,0,0,1-1.51.4,2.871,2.871,0,0,1-2.576-1.511,3.58,3.58,0,0,1,0-3.288,2.854,2.854,0,0,1,1.066-1.111,2.953,2.953,0,0,1,1.51-.4,2.871,2.871,0,0,1,2.576,1.511,3.337,3.337,0,0,1,.4,1.644A3.9,3.9,0,0,1,228.175,147.621Z" transform="translate(-196.725 -140.067)" fill="#604b3b"/>
        <path id="Tracé_23" data-name="Tracé 23" d="M296.519,143.255a2.73,2.73,0,0,1,.711,2.044v3.954h-.267V145.3a2.623,2.623,0,0,0-.622-1.866,2.311,2.311,0,0,0-1.777-.666,2.611,2.611,0,0,0-2.043.8,2.9,2.9,0,0,0-.755,2.044v3.643H291.5v-6.709h.267v1.777a2.585,2.585,0,0,1,1.022-1.333,3.213,3.213,0,0,1,1.777-.489A2.873,2.873,0,0,1,296.519,143.255Z" transform="translate(-235.131 -140.012)" fill="#604b3b"/>
        <path id="Tracé_24" data-name="Tracé 24" d="M312.91,149.076a2.951,2.951,0,0,1-1.111-.666l.133-.222a3.306,3.306,0,0,0,1.022.622,3.682,3.682,0,0,0,1.421.267,2.864,2.864,0,0,0,1.688-.4,1.292,1.292,0,0,0,.533-1.111.951.951,0,0,0-.311-.8,1.934,1.934,0,0,0-.711-.444,9.21,9.21,0,0,0-1.155-.267,6.852,6.852,0,0,1-1.288-.311,1.6,1.6,0,0,1-.8-.533,1.364,1.364,0,0,1-.311-.978,1.623,1.623,0,0,1,.622-1.244,2.825,2.825,0,0,1,1.777-.489,4.012,4.012,0,0,1,1.244.178,3.33,3.33,0,0,1,.977.489l-.178.222a3.1,3.1,0,0,0-.933-.489,3.227,3.227,0,0,0-1.111-.178,2.417,2.417,0,0,0-1.555.4,1.267,1.267,0,0,0-.533,1.066,1.106,1.106,0,0,0,.311.844,1.63,1.63,0,0,0,.755.444,11.583,11.583,0,0,0,1.155.267,10.02,10.02,0,0,1,1.244.311,1.859,1.859,0,0,1,.8.489,1.252,1.252,0,0,1,.311.933,1.5,1.5,0,0,1-.622,1.244,3.116,3.116,0,0,1-1.866.489A2.851,2.851,0,0,1,312.91,149.076Z" transform="translate(-246.414 -140.012)" fill="#604b3b"/>
      </g>
    </g>
  </g>
</svg>
