<?xml version="1.0" encoding="utf-8"?>
<!-- Generator: Adobe Illustrator 26.0.1, SVG Export Plug-In . SVG Version: 6.00 Build 0)  -->
<svg version="1.1" id="Calque_1" xmlns="http://www.w3.org/2000/svg" xmlns:xlink="http://www.w3.org/1999/xlink" x="0px" y="0px"
	 viewBox="0 0 532.5 318.2" style="enable-background:new 0 0 532.5 318.2;" xml:space="preserve">
<style type="text/css">
	.st0{opacity:0.2;}
	.st1{fill:#39A055;}
	.st2{fill:#D19E93;}
	.st3{opacity:0.4;fill:#37A055;enable-background:new    ;}
	.st4{fill:#B0564E;}
	.st5{fill:#B0564E;stroke:#FFFFFF;stroke-width:0.25;stroke-miterlimit:10;}
</style>
<g class="st0">
	<path class="st1" d="M221,159.1c-0.5,0-0.9,0.4-0.9,0.9c0.4,24.4-13.5,47.8-37.1,58.4c-12.6,5.6-26.1,6.8-38.6,4.1
		c-0.5-0.1-0.9,0.2-1.1,0.6l0,0c-0.1,0.5,0.2,1,0.7,1.1c12.9,2.8,26.8,1.6,39.8-4.2c24.3-10.9,38.6-35,38.2-60.1
		C221.9,159.5,221.5,159.1,221,159.1L221,159.1z"/>
	<path class="st1" d="M221.9,159.1c-0.2-8.2-2.1-16.5-5.6-24.4c-14.5-32.5-52.8-47.1-85.3-32.6c-13.1,5.9-22.7,15.9-29.2,27.6
		l0.5,0.3c6.4-11.3,16.8-20.5,29.5-26.2c31.6-14.1,68.8,0.1,82.9,31.7c3.4,7.7,5.2,15.7,5.4,23.6L221.9,159.1z"/>
</g>
<g>
	<path class="st2" d="M58.3,159.1c0,57.2,46.5,103.7,103.7,103.7c22.3,0,43-7.1,60-19.2l-8.4-14.3c-14.5,10.6-32.3,16.9-51.6,16.9
		c-48.1,0-87.2-39.1-87.2-87.2L58.3,159.1L58.3,159.1z"/>
	<path class="st2" d="M74.8,159.1c0-48.1,39.1-87.2,87.2-87.2c19.3,0,37.1,6.3,51.6,16.9l8.4-14.3c-16.9-12-37.6-19.2-60-19.2
		c-57.2,0-103.7,46.5-103.7,103.7L74.8,159.1L74.8,159.1z"/>
</g>
<path class="st3" d="M256.4,243.3c18.3-21.1,27.8-45.6,30.6-71.3l0,0c-2.8,24.9-14.9,49.1-33.2,68.9
	c-46.6,50.3-126.2,52.1-175.1,3.2c-45.4-45.4-47.2-119.2-4.3-167c18.3-20.3,41.9-33,66.9-37.9c0.9-0.2,1.5-1,1.4-2l0,0
	c-0.1-1-1.1-1.6-2-1.4c-35.5,6.9-68.4,29.2-87.9,66.6c-18.5,35.5-18.3,78,0.6,113.2C96.2,295.4,202.2,305.9,256.4,243.3z"/>
<g>
	<path class="st4" d="M25.3,159.1c0-73.8,60-133.8,133.8-133.8c29.6,0,56.9,9.7,79.1,26l12.9-21.9c-26-18.5-57.7-29.4-92-29.4
		C71.4,0,0,71.4,0,159.1H25.3z"/>
	<path class="st4" d="M0,159.1c0,87.7,71.4,159.1,159.1,159.1c34.2,0,66-10.9,92-29.4l-12.9-21.9c-22.2,16.3-49.5,26-79.1,26
		c-73.8,0-133.8-60-133.8-133.8H0z"/>
</g>
<g>
	<g>
		<path class="st4" d="M269.3,197.3H266v-17.5h-0.2c-5.5,10.8-16.1,17.4-29.5,17.4c-20.9,0-33.5-16.2-33.5-33.4
			c0-17.5,13-33.4,33.5-33.4c15.4,0,26.4,9.5,29.5,17.8h0.2v-41.4h3.4V197.3z M266.3,163.8c0-17.4-13.1-30.2-30.1-30.2
			c-16.6,0-30.1,12.4-30.1,30.2c0.1,14.4,10,30.2,30.5,30.2C254.1,194,266.3,180.2,266.3,163.8z"/>
	</g>
	<path class="st4" d="M410.8,187.6c-5,3.6-11,5.8-17.6,5.8c-16.5,0-30-13.4-30-30s13.4-30,30-30c6.6,0,12.7,2.1,17.6,5.8l2.1-3
		c-5.5-4-12.4-6.4-19.7-6.4c-18.5,0-33.6,15.1-33.6,33.6s15.1,33.6,33.6,33.6c7.4,0,14.2-2.4,19.7-6.4L410.8,187.6z"/>
	<g>
		<path class="st5" d="M122.1,161.9C122.1,161.9,122.1,161.8,122.1,161.9c0-0.1,0-0.1,0-0.1V161.9z"/>
		<g>
			<path class="st4" d="M185.7,168.2c-1.5,11.8-9.5,20.7-20.7,24.2c-11.9,3.9-31.2,0.4-37.8-19.3l60.4-19.3l-0.4-1.8
				c-6.8-18.5-25.2-25.4-41.5-20.3c-18.1,5.8-27.6,23.9-21.8,42.1c5.8,18,23.5,27.4,42,21.6c12.3-3.8,22-13.7,23.4-28.4L185.7,168.2
				z M146.6,134.9c14-5.1,31.5,2.7,36.8,17.1l-57.1,18.2C122.4,154.6,131.6,139.7,146.6,134.9z"/>
		</g>
	</g>
	<path class="st4" d="M295.7,144.5h0.2c5.8-12,16.7-12.7,22.2-13.1v3.2c-3.8,0.1-8.2,0.4-13.9,4.4c-7.6,6.8-8.5,14.3-8.5,23v34.4
		h-3.4v-63.6h3.4V144.5z"/>
	<g>
		<path class="st4" d="M514,198.6c-7.1,5.2-15.9,8.3-25.3,8.3c-23.7,0-43-19.3-43-43.1s19.3-43.1,43-43.1c9.5,0,18.2,3.1,25.3,8.3
			l3-4.2c-8-5.8-17.8-9.2-28.4-9.2c-26.6,0-48.3,21.7-48.3,48.3s21.6,48.3,48.3,48.3c10.6,0,20.4-3.4,28.4-9.2L514,198.6z"/>
		<circle class="st4" cx="528.8" cy="197" r="3.2"/>
	</g>
	<g>
		<path class="st4" d="M340.9,195.5h-3.4v-63.6h3.4V195.5z"/>
		<circle class="st4" cx="339.1" cy="116.1" r="3.2"/>
	</g>
</g>
<rect x="129.9" y="119.1" transform="matrix(0.7816 -0.6237 0.6237 0.7816 -43.6654 116.5942)" class="st4" width="29.6" height="3.1"/>
<g>
	<path class="st4" d="M181,218.4h-3.9v-13h3.9c4.6,0,7.6,2.6,7.6,6.5C188.6,215.8,185.6,218.4,181,218.4z M178.4,206.5v10.8h2.7
		c3.8,0,6.4-2.1,6.4-5.4c0-3.3-2.6-5.4-6.4-5.4L178.4,206.5L178.4,206.5z"/>
	<path class="st4" d="M200.2,213.6c0,0.4,0,0.9-0.1,1.2h-8.3c0.4,1.8,1.8,2.9,3.5,2.9c1.4,0,2.8-0.7,3.3-1.7h1v0.5
		c-0.7,1.3-2.5,2.3-4.3,2.3c-2.8,0-4.8-2.2-4.8-5.2c0-2.8,2-4.9,4.8-4.9C198.2,208.7,200.2,210.8,200.2,213.6z M191.7,213.8h7.4
		c0.1-2.3-1.5-4-3.7-4c-2.1,0-3.6,1.6-3.6,3.8L191.7,213.8L191.7,213.8z"/>
	<path class="st4" d="M202,216.3v-0.6h1c0.2,1.2,1.4,2,2.8,2c1.5,0,2.6-0.8,2.6-2c0-2.5-6.5-0.5-6.5-4.3c0-1.6,1.5-2.7,3.7-2.7
		c1.9,0,3.3,0.8,3.6,1.9v0.6h-1c-0.1-0.8-1.1-1.4-2.5-1.4c-1.6,0-2.6,0.7-2.6,1.7c0,2.5,6.6,0.6,6.5,4.2c0,1.8-1.6,3.1-3.8,3.1
		C204,218.8,202.4,217.8,202,216.3z"/>
	<path class="st4" d="M212.5,205.6c0.5,0,0.8,0.4,0.8,0.8c0,0.5-0.3,0.8-0.8,0.8s-0.8-0.3-0.8-0.8C211.7,206,212,205.6,212.5,205.6z
		 M212,209.1h1.1v9.3H212V209.1z"/>
	<path class="st4" d="M225.3,213.8v4.7c0,2.7-2,4.6-4.7,4.6c-2.4,0-4.4-1.5-4.9-3.5V219h1.1c0.2,1.7,1.8,3,3.8,3
		c2.1,0,3.6-1.5,3.6-3.6v-1.9c-0.8,1.3-2.1,2.2-3.8,2.2c-2.8,0-4.9-2.1-4.9-5s2.1-5,4.9-5C223.3,208.7,225.3,210.8,225.3,213.8z
		 M216.6,213.8c0,2.3,1.6,3.9,3.8,3.9s3.8-1.6,3.8-3.9c0-2.3-1.6-4-3.8-4C218.2,209.8,216.6,211.5,216.6,213.8z"/>
	<path class="st4" d="M236.3,212.9v5.5h-1.1v-5.3c0-1.9-1.2-3.3-3-3.3s-3,1.3-3,3.1v5.5H228v-9.3h1.1v1.4c0.6-1.1,1.7-1.8,3.1-1.8
		C234.7,208.7,236.3,210.4,236.3,212.9z"/>
	<path class="st4" d="M248.1,213.6c0,0.4,0,0.9-0.1,1.2h-8.3c0.4,1.8,1.8,2.9,3.5,2.9c1.4,0,2.8-0.7,3.3-1.7h1v0.5
		c-0.7,1.3-2.5,2.3-4.3,2.3c-2.8,0-4.8-2.2-4.8-5.2c0-2.8,2-4.9,4.8-4.9C246,208.7,248.1,210.8,248.1,213.6z M239.6,213.8h7.4
		c0.1-2.3-1.5-4-3.7-4c-2.1,0-3.6,1.6-3.6,3.8L239.6,213.8L239.6,213.8z"/>
	<path class="st4" d="M256.2,209.5v1h-0.6c-0.3-0.4-0.9-0.7-1.6-0.7c-1.5,0-2.4,1.4-2.4,3.4v5.3h-1.1v-9.3h1.1v1.4
		c0.5-1.1,1.4-1.8,2.6-1.8C254.9,208.8,255.8,209.1,256.2,209.5z"/>
	<path class="st4" d="M270.3,212.3v-1.1h6.8c0.3,4.4-2.6,7.6-6.7,7.6s-7-2.9-7-7s2.9-7,7-7c2.6,0,5,1.4,5.8,3.5v0.7h-1
		c-0.6-1.8-2.6-3.1-4.9-3.1c-3.3,0-5.7,2.4-5.7,5.9c0,3.4,2.4,5.8,5.7,5.9c3.2,0,5.5-2.3,5.5-5.4L270.3,212.3L270.3,212.3z"/>
	<path class="st4" d="M285.4,209.5v1h-0.6c-0.3-0.4-0.9-0.7-1.6-0.7c-1.5,0-2.4,1.4-2.4,3.4v5.3h-1.1v-9.3h1.1v1.4
		c0.5-1.1,1.4-1.8,2.6-1.8C284.1,208.8,285,209.1,285.4,209.5z"/>
	<path class="st4" d="M296.3,213.8v4.7h-1.1v-1.8c-0.7,1.3-2.1,2.1-3.9,2.1c-2.9,0-4.9-2.1-4.9-5s2-5,4.9-5
		C294.2,208.7,296.3,210.8,296.3,213.8z M287.6,213.8c0,2.3,1.6,4,3.8,4s3.8-1.7,3.8-4s-1.6-4-3.8-4S287.6,211.5,287.6,213.8z"/>
	<path class="st4" d="M298.7,222.7v-9c0-2.9,2-4.9,4.9-4.9s4.9,2.1,4.9,5s-2.1,5-4.9,5c-1.7,0-3-0.8-3.8-2.1v6H298.7z M303.6,209.8
		c-2.2,0-3.8,1.7-3.8,4s1.6,4,3.8,4c2.2,0,3.8-1.7,3.8-4C307.3,211.5,305.7,209.8,303.6,209.8z"/>
	<path class="st4" d="M319.1,212.9v5.6H318v-5.3c0-1.9-1.2-3.3-3-3.3s-3,1.3-3,3.1v5.5h-1.1v-13.6h1.1v5.7c0.6-1.1,1.7-1.8,3.1-1.8
		C317.5,208.7,319.1,210.4,319.1,212.9z"/>
	<path class="st4" d="M322.5,205.6c0.5,0,0.8,0.4,0.8,0.8c0,0.5-0.3,0.8-0.8,0.8s-0.8-0.3-0.8-0.8C321.6,206,322,205.6,322.5,205.6z
		 M321.9,209.1h1.1v9.3h-1.1V209.1z"/>
	<path class="st4" d="M334.1,222.7v-6c-0.7,1.3-2.1,2.1-3.8,2.1c-2.9,0-4.9-2.1-4.9-5s2.1-5,4.9-5c2.9,0,4.9,2.1,4.9,4.9v9H334.1z
		 M330.3,217.7c2.2,0,3.8-1.7,3.8-4s-1.6-4-3.8-4c-2.2,0-3.8,1.7-3.8,4C326.5,216.1,328.1,217.7,330.3,217.7z"/>
	<path class="st4" d="M337.7,214.6v-5.5h1.1v5.3c0,1.9,1.2,3.3,3,3.3s3-1.3,3-3.1v-5.5h1.1v9.3h-1.1V217c-0.6,1.1-1.7,1.8-3.1,1.8
		C339.3,218.8,337.7,217.1,337.7,214.6z"/>
	<path class="st4" d="M358,213.6c0,0.4,0,0.9-0.1,1.2h-8.3c0.4,1.8,1.8,2.9,3.5,2.9c1.4,0,2.8-0.7,3.3-1.7h1v0.5
		c-0.7,1.3-2.5,2.3-4.3,2.3c-2.8,0-4.8-2.2-4.8-5.2c0-2.8,2-4.9,4.8-4.9C356,208.7,358,210.8,358,213.6z M349.5,213.8h7.4
		c0.1-2.3-1.5-4-3.7-4c-2.1,0-3.6,1.6-3.6,3.8L349.5,213.8L349.5,213.8z"/>
	<path class="st4" d="M359.8,217c0.6,0,0.9,0.4,0.9,1.1c0,1.2-0.5,2.3-1.2,2.6h-0.6v-0.3c0.5-0.2,0.9-1,0.9-1.8
		c-0.5,0-0.8-0.3-0.8-0.8C358.9,217.3,359.3,217,359.8,217z"/>
	<path class="st4" d="M378.9,205.4v7.8c0,3.4-2.1,5.7-5.2,5.7s-5.2-2.4-5.2-5.7v-7.8h1.2v7.7c0,2.6,1.5,4.6,3.9,4.6s3.9-1.9,3.9-4.6
		v-7.7H378.9z"/>
	<path class="st4" d="M386.6,210.8l4.6-5.4h1v0.7l-4.6,5.4l4.8,6.2v0.7h-1l-4.7-6.1l-4.5,6.1h-1v-0.7l4.7-6.2l-4.5-5.4v-0.7h1
		L386.6,210.8z"/>
	<path class="st4" d="M411,218.4h-1.1l-1.8-1.6c-1.2,1.3-2.7,2.1-4.4,2.1c-2.1,0-4.3-1.3-4.3-3.7c0-2.1,1.3-3.1,2.9-3.7
		c-0.8-0.8-1.5-1.9-1.5-3.1c0-1.9,1.6-3.2,3.8-3.2c2.1,0,3.7,1.3,3.7,3.1c0,2.2-2.1,2.9-4.1,3.6l3.9,3.5c0.6-0.9,1.1-2,1.5-3.2h1
		v0.6c-0.5,1.2-1.1,2.4-1.8,3.3l2.1,1.9L411,218.4L411,218.4z M407.4,216.1l-4.4-3.9c-1.4,0.6-2.5,1.4-2.5,3c0,1.7,1.7,2.6,3.3,2.6
		C405.2,217.8,406.4,217.2,407.4,216.1z M403.5,211c1.9-0.7,3.8-1.2,3.8-2.9c0-1.1-1.1-1.9-2.6-1.9s-2.6,0.9-2.6,2.1
		C401.9,209.3,402.6,210.2,403.5,211z"/>
	<path class="st4" d="M429,205.4v7.8c0,3.4-2.1,5.7-5.2,5.7s-5.2-2.4-5.2-5.7v-7.8h1.2v7.7c0,2.6,1.5,4.6,3.9,4.6s3.9-1.9,3.9-4.6
		v-7.7H429z"/>
	<path class="st4" d="M432.1,205.4h1.2v13h-1.2V205.4z"/>
</g>
</svg>
