<?xml version="1.0" encoding="utf-8"?>
<!-- Generator: Adobe Illustrator 25.0.1, SVG Export Plug-In . SVG Version: 6.00 Build 0)  -->
<svg version="1.1" id="Calque_1" xmlns="http://www.w3.org/2000/svg" xmlns:xlink="http://www.w3.org/1999/xlink" x="0px" y="0px"
	 viewBox="0 0 437.3 484.81" style="enable-background:new 0 0 437.3 484.81;" xml:space="preserve">
<style type="text/css">
	.st0{fill:#39A055;}
	.st1{fill:#D19E93;}
	.st2{opacity:0.4;fill:#37A055;}
	.st3{fill:#B0564E;}
	.st4{fill:#B0564E;stroke:#FFFFFF;stroke-width:0.25;stroke-miterlimit:10;}
</style>
<g>
	<path class="st0" d="M336.68,242.4c-0.77,0-1.37,0.63-1.36,1.4c0.58,37.12-20.59,72.85-56.57,88.94
		c-19.18,8.58-39.73,10.31-58.86,6.23c-0.72-0.15-1.43,0.28-1.61,1l0,0c-0.19,0.76,0.28,1.53,1.04,1.7
		c19.68,4.19,40.82,2.42,60.55-6.41c37.01-16.56,58.8-53.31,58.2-91.49C338.06,243.01,337.44,242.4,336.68,242.4L336.68,242.4z"/>
	<path class="st0" d="M338.04,242.4c-0.37-12.47-3.13-25.08-8.53-37.16c-22.16-49.53-80.48-71.79-130.01-49.63
		c-19.98,8.94-34.56,24.26-44.54,42.02l0.75,0.39c9.7-17.22,25.53-31.22,44.92-39.9c48.14-21.54,104.83,0.1,126.37,48.25
		c5.24,11.71,7.93,23.93,8.29,36.03L338.04,242.4z"/>
	<path class="st1" d="M88.88,242.4c0,87.14,70.89,158.03,158.03,158.03c34.02,0,65.54-10.84,91.35-29.2l-12.78-21.74
		c-22.02,16.2-49.19,25.8-78.57,25.8c-73.28,0-132.89-59.62-132.89-132.89H88.88z"/>
	<path class="st1" d="M114.02,242.4c0-73.28,59.62-132.89,132.89-132.89c29.38,0,56.54,9.6,78.57,25.8l12.78-21.74
		c-25.82-18.36-57.33-29.2-91.35-29.2c-87.14,0-158.03,70.89-158.03,158.03H114.02z"/>
	<path class="st2" d="M390.64,370.74c27.87-32.14,42.36-69.42,46.66-108.58l0,0c-4.21,38-22.64,74.83-50.57,104.96
		c-70.99,76.59-192.22,79.43-266.68,4.85c-69.13-69.24-71.96-181.65-6.48-254.36c27.9-30.98,63.89-50.29,101.86-57.7
		c1.39-0.27,2.32-1.57,2.1-2.97l-0.01-0.07c-0.23-1.47-1.63-2.47-3.09-2.19C160.34,65.23,110.14,99.25,80.54,156.13
		c-28.11,54.03-27.81,118.85,0.96,172.53C146.58,450.04,307.98,466.05,390.64,370.74z"/>
	<path class="st3" d="M38.56,242.4c0-112.4,91.44-203.84,203.84-203.84c45.06,0,86.73,14.72,120.52,39.58l19.61-33.35
		C342.93,16.63,294.59,0,242.41,0C108.74,0,0,108.74,0,242.4H38.56z"/>
	<path class="st3" d="M0,242.4c0,133.66,108.74,242.41,242.41,242.41c52.18,0,100.53-16.63,140.13-44.79l-19.61-33.35
		c-33.78,24.85-75.46,39.58-120.52,39.58c-112.4,0-203.84-91.44-203.84-203.85H0z"/>
	<g>
		<path class="st3" d="M410.34,300.51h-5.12l0-26.72h-0.37c-8.41,16.46-24.5,26.51-44.98,26.51c-31.81,0-51.01-24.68-51.01-50.83
			c0-26.69,19.75-50.83,51.01-50.83c23.4,0,40.22,14.44,44.98,27.06h0.37v-63.08h5.12L410.34,300.51z M405.77,249.48
			c0-26.51-19.93-46.08-45.89-46.08c-25.23,0-45.89,18.83-45.89,46.08c0.19,21.94,15.18,46.08,46.44,46.08
			C387.12,295.56,405.77,274.53,405.77,249.48z"/>
	</g>
	<g>
		<path class="st4" d="M186.04,246.62c0-0.03,0-0.06,0-0.09c0-0.03,0-0.06,0-0.09V246.62z"/>
		<g>
			<path class="st3" d="M282.93,256.33c-2.32,18.01-14.52,31.5-31.59,36.95c-18.06,5.96-47.6,0.6-57.56-29.42l91.97-29.35
				l-0.66-2.67c-10.33-28.18-38.47-38.77-63.21-30.88c-27.49,8.77-42.07,36.41-33.29,64.08c8.81,27.46,35.83,41.82,64.02,32.83
				c18.7-5.77,33.46-20.85,35.72-43.26L282.93,256.33z M223.33,205.48c21.32-7.76,47.94,4.09,56.1,26.05l-86.92,27.74
				C186.46,235.48,200.51,212.76,223.33,205.48z"/>
		</g>
	</g>
</g>
<g>
	
		<rect x="197.92" y="181.47" transform="matrix(0.7816 -0.6237 0.6237 0.7816 -66.5088 177.6338)" class="st3" width="45.04" height="4.66"/>
</g>
</svg>
