<?xml version="1.0" encoding="utf-8"?>
<!-- Generator: Adobe Illustrator 23.0.6, SVG Export Plug-In . SVG Version: 6.00 Build 0)  -->
<svg version="1.1" xmlns="http://www.w3.org/2000/svg" xmlns:xlink="http://www.w3.org/1999/xlink" x="0px" y="0px"
	 viewBox="0 0 277.8 134.72" style="enable-background:new 0 0 277.8 134.72;" xml:space="preserve">
<style type="text/css">
	.st0{fill:#CBD7D8;}
	.st1{fill:#408787;}
	.st2{display:none;}
	.st3{display:inline;}
	.st4{fill:#7B6A58;}
</style>
<g id="fond">
</g>
<g id="plume">
	<path class="st0" d="M19.49,3.08c0.09,0.02,0.18,0.04,0.27,0.06c5.51-1.1,11.08-1.9,16.69-2.4c5.69-0.51,11.4-0.78,17.12-0.73
		c11.43,0.13,22.83,1.23,34.07,3.21c6.78,1.16,9.32,3.23,18.79,4.54c0.48,0.11,8.12,1.4,9.26,1.46c0,0-7.8,4.52-23.45,4.54
		c0,0,1.81,1.65,13.06,0.63c10.89-0.98,14.87-3.04,14.87-3.04c10.85,3.4,22.09,7.44,32.55,11.78c10.44,4.39,20.7,9.14,30.86,14.07
		c3.11,1.51,3.5,1.77,5.38,1.86c6.41,4.02,11.31,20.9,5.15,31.51c0,0,0,0,1.11,1.13c6.24-6.43,4.7-19.22-0.8-28.38
		c9.02,8.24,13.15,23.39,6.49,34.45c0,0,0.57,0.64,3.34,3.72c5.3-6.42,6.04-21.33-0.53-34.27c0.02,0.01,15.58,20.68,6.92,41.44
		c0,0,1.69,1.93,3.43,3.87c5.32-8.38,4.08-12.12,3.61-17.49c-0.44-5.04-2.65-12.53,1.46-13.86c0.5,0.16-2.73-0.39-1.12,8.82
		c0.85,4.87,4.75,10.28,2.6,18.73c-2.81,11.02,11.09,18.27,10.87,22.47c1.73,1.68,3.5,3.33,5.34,4.9c1.06,0.94,2.16,1.83,3.24,2.74
		c1.12,0.87,2.27,1.7,3.36,2.6c2.54,2.1,5.49,3.94,8.5,5.56c-0.18-0.02-2.48-0.26-5.1-0.02c-2.21-1.32-4.55-2.74-5.21-3.19
		c-7.71-5.23-13.54-11.7-14.62-11.82c-1.39-0.16-2.84-2.66-3.97-3.52c-5.54,1.35-14.12,0.28-22.4-5.09
		c-9.56-6.2-20.95-3.64-19.85-3.97c6.4-1.9,16.96-0.17,24.43,3.15c10.47,4.66,13.05,0.54,13.05,0.54c-0.46-0.55-4.73-5.36-4.73-5.36
		c-27.8-0.33-50.77-6.07-70.68-21.9c6.82,5.43,34.13,15.28,61.26,14.78c1.89-0.04,3.1-0.32,3.1-0.32s-1.16-1.37-2.54-2.83
		c-1.02-1.09-1.47-1.78-2.2-2.82c-9.38,0.75-24.6,0.22-42.29-5c-12.4-3.65-22.29-8.76-27.26-13.72c10.52,1.14,19-0.99,27.58-3.19
		c6.24-1.6,9.94,2.73,11.83,7.5c1.58-8.48,1.19-9.6,0.6-15.09c-0.59-5.48-7.4-11.02-14.78-12.65c-5.2-1.14-8.61-1.39-12.92-4.14
		c-1.64-0.05-3.86-0.81-4.03,1.4c-0.14,1.78-2.86,4.71-7.06,2.52c-10.41-5.42-12.55-1.69-15.71-7.05c8.59,2.51,10.86-3,17.83,0.01
		c2.28,0.98,2.39-1.42,2.39-2.64c-0.35-0.46-0.71-0.9-1.12-1.31c-2.84-2.8-6.55-3.66-10.61-4.24c-8.48-1.21-16.4-2.54-25.51-0.15
		c-7.46,1.96-17.04,8.18-22.86,4.51C59.64,19.49,52.92,18.1,42.31,12.94c9.69,3.72,23.06-2.09,42.58,1.45c0,0,3.98,0.95-5.25-1.37
		c-11.43-1.4-20.44,0.23-27.37-0.17c-7.88-0.45-14-2.23-14-2.23C29.3,5.39,24.38,4.35,19.75,3.15c-0.08,0.01-0.16,0.02-0.24,0.04
		c0.07-0.02,0.15-0.03,0.22-0.04C19.65,3.12,19.57,3.1,19.49,3.08z"/>
</g>
<g id="Q">
	<g>
		<path class="st1" d="M265.51,106.9c-3.14,3.55-7.25,6.12-11.44,8.24c-4.18,2.13-8.71,3.47-13.34,3.93
			c-4.63,0.47-9.31,0.04-13.86-0.97c-4.56-1.01-9-2.62-13.3-4.58c-2.13-0.98-4.34-2.05-6.23-3.17c-1.94-1.15-3.79-2.47-5.58-3.9
			c-0.12-0.09-0.22-0.2-0.34-0.29c9.53-1.49,19.07-3.41,28.58-6.34c4.98-1.55,9.95-3.42,14.84-5.83c4.87-2.41,9.73-5.41,14.06-9.57
			c2.15-2.08,4.15-4.49,5.78-7.22c0.41-0.68,0.8-1.37,1.14-2.1l0.52-1.08l0.45-1.12c0.32-0.74,0.57-1.51,0.8-2.28
			c0.26-0.79,0.42-1.51,0.59-2.22c1.38-5.75,1.23-12.37-0.96-18.26c-2.14-5.93-5.96-10.83-10.1-14.73
			c-4.18-3.92-8.77-6.97-13.43-9.59c-9.37-5.17-19.11-8.71-28.9-11.57c-4.9-1.42-9.82-2.66-14.73-3.77
			c-4.86-1.1-9.84-2.15-14.81-3.03c-9.94-1.77-19.95-3.07-30.08-3.77c-10.12-0.71-20.35-0.87-30.66-0.06
			c-10.29,0.83-20.75,2.6-30.87,6.54c-2.51,0.98-5.05,2.15-7.41,3.42c-2.28,1.22-4.55,2.53-6.79,3.95
			c-2.24,1.44-4.46,2.99-6.62,4.81c-2.15,1.82-4.29,3.86-6.16,6.54c-0.93,1.35-1.8,2.85-2.44,4.62c-0.65,1.75-1.06,3.77-0.98,5.87
			c0.06,2.1,0.63,4.2,1.52,5.98c0.88,1.8,2.04,3.28,3.26,4.53c2.46,2.48,5.13,4.12,7.82,5.43c1.35,0.65,2.71,1.2,4.1,1.69
			c0.71,0.24,1.35,0.46,2.14,0.67c0.78,0.23,1.49,0.38,2.2,0.54c2.79,0.57,5.33,0.9,7.84,1.21c2.51,0.31,4.96,0.57,7.39,0.83
			c4.86,0.53,9.63,1.1,14.35,1.83c9.43,1.45,18.64,3.59,27.35,6.82c4.34,1.62,8.56,3.57,12.52,5.79c3.96,2.26,7.73,4.9,11.35,7.82
			c4.37,3.5,8.47,7.41,12.59,11.44c-2.93,0.31-5.87,0.59-8.81,0.86c-19.31,1.68-38.82,2.29-58.43,2.75l-7.37,0.16
			c-2.43,0.04-4.84,0.09-7.26,0.09c-4.83,0.03-9.65-0.06-14.44-0.22c-9.59-0.35-19.11-1.15-28.31-2.88
			c-4.59-0.87-9.11-1.95-13.42-3.38c-2.18-0.69-4.26-1.52-6.33-2.39c-2.03-0.91-4.02-1.88-5.91-2.98
			c-3.77-2.19-7.16-4.83-10.02-7.92c-0.69-0.79-1.4-1.57-2.02-2.41l-0.49-0.62l-0.28-0.37l-0.23-0.3c-0.28-0.38-0.54-0.77-0.8-1.17
			c-1.02-1.63-1.84-3.42-2.39-5.25c-1.12-3.68-1.14-7.55-0.03-11.29c1.1-3.75,3.32-7.35,6.18-10.61c2.88-3.26,6.35-6.2,10.11-8.84
			c1.88-1.32,3.85-2.58,5.86-3.77c1-0.6,2.04-1.18,3.09-1.76l3.13-1.77c8.42-4.6,17.12-8.76,26.09-12.33
			c8.97-3.59,18.19-6.6,27.58-9.1c9.39-2.5,18.99-4.35,28.69-5.52c4.85-0.61,9.73-1.02,14.63-1.19c2.45-0.09,4.9-0.11,7.35-0.05
			c2.45,0.06,4.91,0.18,7.35,0.51c-4.81-1.04-9.76-1.47-14.7-1.68c-4.94-0.21-9.9-0.18-14.85,0.06c-9.9,0.51-19.77,1.76-29.51,3.67
			C72.63,8.01,53.69,14.57,35.76,23.11c-8.89,4.25-18.03,9.35-25.41,16.95c-3.65,3.82-6.87,8.37-8.72,13.68
			c-1.88,5.29-2.15,11.26-0.74,16.75c0.69,2.75,1.74,5.38,3.15,7.87c0.35,0.62,0.73,1.24,1.13,1.85l0.54,0.79l0.59,0.83
			c0.76,1.12,1.64,2.15,2.49,3.2c3.53,4.12,7.76,7.64,12.31,10.5c2.27,1.44,4.63,2.69,7.02,3.86c2.4,1.11,4.83,2.17,7.3,3.05
			c4.92,1.83,9.95,3.17,14.98,4.27c10.07,2.18,20.18,3.3,30.24,3.95c5.03,0.33,10.05,0.49,15.06,0.58c2.5,0.05,5.01,0.06,7.5,0.07
			l7.39,0.01c19.74,0.03,39.6-0.34,59.53-1.74c7.3-0.51,14.62-1.21,21.94-2.13c1.74,1.47,3.54,2.9,5.44,4.25
			c2.09,1.48,4.3,2.86,6.63,4.06c2.4,1.22,4.64,2.16,7.01,3.1c4.7,1.85,9.62,3.36,14.71,4.2c5.08,0.85,10.37,0.96,15.49,0.12
			c5.13-0.84,10.05-2.66,14.41-5.25c4.36-2.59,8.15-5.9,11.49-9.5c7.2-7.77,10.56-16.03,10.56-16.03
			C272.81,99.48,272.34,99.18,265.51,106.9z M187.91,92.76c-5.25-5.7-10.59-11.57-16.67-16.98c-3.76-3.34-7.81-6.49-12.19-9.27
			c-4.41-2.76-8.99-5.1-13.74-7.12c-9.48-4.04-19.45-6.63-29.37-8.53c-4.96-0.94-9.94-1.71-14.83-2.41l-7.24-1.05
			c-2.35-0.36-4.69-0.74-6.7-1.22c-3.56-0.84-7.61-2.92-9.41-4.94c-0.44-0.49-0.74-0.95-0.89-1.31c-0.16-0.36-0.19-0.61-0.18-0.88
			c0.01-0.5,0.31-1.49,1.26-2.74c0.91-1.23,2.29-2.57,3.87-3.83c1.58-1.27,3.37-2.47,5.25-3.62c1.89-1.14,3.88-2.23,5.92-3.26
			c1.96-0.99,3.88-1.83,5.95-2.59c8.22-3.02,17.4-4.44,26.69-5.06c9.32-0.6,18.82-0.32,28.31,0.49c9.49,0.82,18.99,2.14,28.39,3.89
			c4.7,0.87,9.32,1.89,14.03,3c4.66,1.1,9.25,2.31,13.76,3.66c8.99,2.72,17.77,5.96,25.46,10.27c3.82,2.16,7.36,4.58,10.22,7.3
			c2.87,2.71,5.01,5.67,6.09,8.73c1.11,3.05,1.27,6.27,0.47,9.75c-0.1,0.44-0.2,0.88-0.32,1.22c-0.1,0.37-0.22,0.73-0.37,1.09
			l-0.21,0.54l-0.26,0.53c-0.16,0.36-0.35,0.7-0.56,1.05c-0.81,1.38-1.9,2.72-3.21,4c-2.63,2.55-6.1,4.83-9.97,6.74
			c-3.86,1.93-8.09,3.53-12.45,4.93c-8.75,2.79-18.06,4.74-27.48,6.26C194.35,91.9,191.13,92.34,187.91,92.76z"/>
		<circle class="st1" cx="256.45" cy="130.5" r="4.22"/>
	</g>
</g>
<g id="uauthly" class="st2">
	<g id="signature_2_" class="st3">
		<path class="st4" d="M469.31,93.08l-4.52,0.78l-9.96,1.87l-9.93,1.98l-9.91,2.09c-5.86,1.26-11.7,2.6-17.51,4.01
			c0.84-1.54,1.7-3.08,2.58-4.62c0.36,0.04,0.73,0.05,1.1,0.03c1.92-0.16,3.44-1.12,4.6-2.12c1.19-1.02,2.08-2.2,2.94-3.32
			c1.71-2.28,3.22-4.67,4.52-7.14c2.56-4.95,4.25-10.22,4.99-15.59c0.06-0.42-0.17-0.84-0.62-1.08c-0.64-0.34-1.48-0.18-1.89,0.34
			l-0.02,0.02c-4.53,5.87-8.83,11.87-12.82,18.01c-1.83,2.81-3.61,5.64-5.34,8.5c-0.07-0.05-0.14-0.11-0.21-0.16
			c-1.07-0.86-1.92-1.98-2.81-3.06c-1.74-2.19-3.3-4.49-4.66-6.87c-1.35-2.38-2.51-4.84-3.49-7.35c-0.78-2.04-1.41-4.12-1.91-6.23
			c2.65-2.5,5.27-5.03,7.81-7.62l-8.09,6.38c-0.02-0.08-0.04-0.16-0.05-0.23c0.01,0.08,0.03,0.16,0.04,0.24l-6.53,5.15l-7.32,5.75
			c-2.44,1.92-4.88,3.83-7.34,5.73l-7.36,5.7l-7.41,5.65c-0.37,0.29-0.76,0.57-1.13,0.85c1.58-3.16,3.21-6.31,4.85-9.45
			c0.56-0.32,1.11-0.66,1.63-1.02c3.61-2.5,6.39-5.86,8.36-9.49c1.99-3.63,3.25-7.53,3.94-11.49l0-0.01
			c0.02-0.15,0.03-0.3,0.01-0.45c-0.07-0.55-0.44-0.99-0.93-1.23c8.5-1.53,17.03-2.88,25.58-3.98c7.37-0.92,14.76-1.71,22.16-2.25
			c3.71-0.22,7.41-0.47,11.13-0.57c1.86-0.04,3.72-0.2,5.55-0.08c0.71,0.05,1.44,0.18,2.14,0.41c0,0,0.01,0,0.01-0.01
			c0.02-0.02,0.07-0.06,0.17-0.12c0.06-0.06,0.11-0.12,0.17-0.18c0.01-0.01,0.02-0.03,0.03-0.04c-0.01-0.02-0.02-0.04-0.02-0.05
			c-0.8-0.35-1.64-0.55-2.47-0.67c-1.89-0.26-3.75-0.16-5.61-0.22c-3.73-0.09-7.45-0.02-11.18,0.02c-7.45,0.2-14.9,0.54-22.32,1.21
			c-7.42,0.7-14.83,1.53-22.22,2.59c-7.38,1.09-14.75,2.3-22.09,3.65c-0.15,0.03-0.3,0.06-0.46,0.09c0.42-1.02,0.74-2.04,1.04-3.03
			c0-0.01,0.01-0.02,0.01-0.03l2.68-6.92c0.23-0.6,0.12-1.35-0.3-1.83c-0.51-0.58-1.29-0.54-1.73,0.08l-0.01,0.02
			c-1.66,2.3-2.34,5.06-3.11,7.43c-0.64,2.08-1.38,3.96-2.48,5.02c-1.47,0.28-2.93,0.57-4.4,0.86c-0.42-0.1-0.85-0.23-1.28-0.38
			c-0.97-0.33-1.94-0.79-2.98-1.21l-3.11-1.25c-8.33-3.16-16.97-4.97-25.62-5.33c-2.16-0.16-4.32-0.06-6.49-0.07
			c-2.16,0.14-4.32,0.2-6.46,0.49c-2.15,0.2-4.29,0.59-6.42,0.96c-1.07,0.19-2.12,0.48-3.18,0.71l-1.59,0.37l-1.57,0.45
			c-4.21,1.12-8.32,2.74-12.36,4.56l-3,1.45c-1.04,0.5-2.14,1.19-3.13,2.04c-1,0.85-1.97,1.91-2.74,3.42
			c-0.38,0.77-0.68,1.69-0.81,2.72c-0.12,1.04,0,2.13,0.25,3.11c0.14,0.54,0.45,1.03,0.89,1.33l0.04,0.02
			c3.74,2.51,7.86,3.26,11.71,3.39c1.94,0.06,3.84-0.02,5.72-0.13c1.88-0.12,3.76-0.28,5.64-0.49c0.61-0.07,1.22-0.15,1.83-0.23
			c-1.48,1.12-2.62,2.33-3.76,3.51c-0.16,0.17-0.31,0.35-0.47,0.52c0.01-0.03,0.02-0.05,0.03-0.08c-0.05,0.07-0.09,0.13-0.14,0.2
			c-0.95,1.03-1.86,2.07-2.73,3.14c-1.03,1.31-2,2.64-2.92,4.01c-0.68,1.01-1.31,2.04-1.91,3.08c-2.21,0.41-4.42,0.89-6.62,1.52
			c1.83,0.29,3.65,0.47,5.47,0.59c-0.32,0.61-0.63,1.23-0.92,1.85c-0.23,0.34-0.46,0.69-0.7,1.04c-3.54,5.05-6.97,10.2-11.83,13.72
			c-0.6,0.44-1.23,0.84-1.87,1.23l-0.98,0.53c-0.3,0.15-0.55,0.25-0.69,0.29c-0.01,0-0.01,0-0.01,0c-0.07-0.09-0.15-0.24-0.22-0.45
			c-0.08-0.25-0.15-0.5-0.21-0.86c-0.49-2.8-0.64-5.66-0.4-8.53c0.47-5.74,2.44-11.4,5.68-16.71c-4.69,4.44-7.82,10.25-8.95,16.37
			c-0.63,3.06-0.68,6.21-0.3,9.33c0.04,0.38,0.12,0.87,0.26,1.34c0.15,0.48,0.36,0.99,0.76,1.54c0.39,0.54,1.1,1.13,2,1.4
			c0.89,0.29,1.85,0.22,2.52,0.06c0.69-0.16,1.21-0.41,1.66-0.62l1.21-0.64c0.78-0.45,1.54-0.93,2.26-1.45
			c2.87-2.08,5.14-4.59,7.05-7.19c1.91-2.61,3.51-5.29,5-8.02c0.75-1.36,1.47-2.73,2.15-4.11c0.5,0.01,1,0.02,1.5,0.03
			c3.45,0.01,6.89-0.15,10.31-0.46c-0.42,1.31-0.85,2.61-1.29,3.93l-1.77,5.28c-0.57,1.77-1.09,3.57-1.59,5.37
			c-0.46,1.81-0.87,3.63-1.15,5.47l-0.19,1.38l-0.13,1.39c-0.02,0.19-0.03,0.38-0.04,0.57c0.18,0.07,0.34,0.17,0.48,0.28
			c0.01-0.03,0.02-0.06,0.03-0.08l0.21-0.66l0.41-1.32l0.47-1.31c0.59-1.75,1.32-3.46,2.03-5.16c0.72-1.71,1.49-3.4,2.26-5.1
			l2.28-5.13c0.76-1.76,1.5-3.53,2.16-5.34c1.98-0.25,3.96-0.56,5.92-0.92c-0.05,0.23-0.11,0.45-0.15,0.68
			c-0.63,3.06-0.68,6.21-0.3,9.33c0.04,0.38,0.12,0.87,0.26,1.34c0.15,0.48,0.36,0.99,0.76,1.54c0.39,0.54,1.1,1.13,2,1.4
			c0.89,0.29,1.85,0.22,2.52,0.06c0.69-0.16,1.21-0.41,1.66-0.62l1.21-0.64c0.78-0.45,1.54-0.93,2.26-1.45
			c2.87-2.08,5.14-4.59,7.05-7.19c1.91-2.61,3.51-5.29,5-8.02c3-5.44,5.48-11.04,7.56-16.78c-3.69,5.1-6.99,10.34-10.48,15.42
			c-3.54,5.05-6.97,10.2-11.83,13.72c-0.6,0.44-1.23,0.84-1.87,1.23l-0.98,0.54c-0.3,0.15-0.55,0.25-0.69,0.29
			c-0.01,0-0.01,0-0.01,0c-0.07-0.09-0.15-0.24-0.22-0.45c-0.08-0.25-0.15-0.5-0.21-0.86c-0.49-2.8-0.64-5.66-0.4-8.53
			c0.05-0.57,0.12-1.14,0.2-1.71c2.31-0.52,4.61-1.14,6.86-1.95c-2.18-0.21-4.34-0.28-6.49-0.29c0.88-4.38,2.62-8.67,5.11-12.76
			c-3.76,3.56-6.5,8-8.02,12.78c-0.34,0.01-0.68,0.01-1.02,0.02c-1.5,0.04-2.99,0.11-4.48,0.19c0.17-0.56,0.34-1.12,0.49-1.69
			c0.24-0.92,0.47-1.85,0.64-2.79c0.2-0.93,0.32-1.88,0.44-2.83c0.13-0.92,0.24-1.95,0.13-3.07c-0.08-0.94-0.37-2.02-1.05-3.01
			c4.06-0.75,8.1-1.63,12.11-2.55l21.82-5.11c4.83-1.12,9.67-2.17,14.51-3.21c0.65-0.04,1.32-0.17,1.97-0.42l-0.66,1.83l-5.06,14.25
			c0.59-3.96,1.07-7.94,1.41-11.92c-0.84,4.59-1.79,9.16-2.83,13.7c-1.35-0.5-2.61-1.19-3.71-2.08l-0.02-0.02
			c-0.23-0.19-0.53-0.32-0.85-0.36c-0.9-0.12-1.73,0.46-1.85,1.29c-0.33,2.18-0.59,4.36-0.79,6.55c-0.19,2.19-0.33,4.38-0.36,6.58
			c-0.06,3.57,0.07,7.13,0.37,10.68c-1.5,4.24-2.98,8.5-4.45,12.75c-7.68,2.62-15.32,5.33-22.91,8.15
			c-0.94,0.35-1.46,1.22-1.17,2.07c0.31,0.93,1.48,1.48,2.61,1.22l0.02,0l23.22-5.34c2.9-0.66,5.78-1.34,8.66-1.95
			c-0.48,1.49-0.94,2.98-1.38,4.47l0,0l0,0.01c-0.04,0.12,0.03,0.25,0.16,0.29c0.13,0.04,0.28-0.02,0.33-0.14l0.01-0.02
			c0.63-1.61,1.27-3.22,1.92-4.83c4.47-0.92,8.93-1.65,13.41-1.9c3.83-0.22,7.68-0.08,11.38,0.55c3.69,0.63,7.23,1.77,10.28,3.49
			c3.01,1.69,5.5,4.05,7.12,6.74c0.6,0.99,1.07,2.04,1.4,3.1c-0.17,2.01-0.11,4.06,0.31,6.09c0.15,0.71,0.82,1.31,1.73,1.45
			c1.16,0.17,2.28-0.47,2.48-1.43l0-0.01c0.47-2.19,0.34-4.41-0.23-6.53c0.13-1.25,0.36-2.51,0.67-3.76
			c0.81-3.26,2.11-6.49,3.51-9.74c2.8-6.5,5.85-12.93,9.2-19.26c0.37-0.7,0.75-1.4,1.12-2.09c6.42-1.71,12.86-3.37,19.31-4.99
			l9.79-2.38l9.83-2.27l9.86-2.17l4.32-0.92c0.01-0.04,0.03-0.08,0.04-0.12c0.01-0.09,0.01-0.18,0-0.27
			C469.32,93.11,469.32,93.09,469.31,93.08z M425.77,89.62c2.77-4.45,5.7-8.83,8.73-13.17c-0.77,3.23-1.89,6.41-3.37,9.47
			c-1.16,2.42-2.51,4.78-4.08,7.04c-0.8,1.14-1.57,2.24-2.57,3.16c-0.98,0.91-2.18,1.67-3.5,1.81c-0.07,0.01-0.14,0.01-0.22,0.01
			C422.39,95.15,424.05,92.37,425.77,89.62z M272.5,120.15C272.52,120.17,272.53,120.17,272.5,120.15L272.5,120.15z M318.82,110.66
			C318.84,110.68,318.84,110.69,318.82,110.66L318.82,110.66z M307.45,89.35c-0.1,0.87-0.2,1.75-0.38,2.62
			c-0.13,0.87-0.32,1.74-0.52,2.62c-0.21,0.91-0.44,1.82-0.69,2.74c-0.52,0.04-1.04,0.08-1.55,0.13c-3.3,0.3-6.6,0.7-9.89,1.2
			c0.25-0.32,0.48-0.65,0.74-0.96c2.01-2.47,4.21-4.82,6.54-7.04c1.17-1.12,2.36-2.22,3.55-3.07c0.73-0.52,1.48-0.92,2.23-1.18
			C307.64,87.18,307.61,88.23,307.45,89.35z M322.08,76.55c-7.27,1.63-14.54,3.12-21.84,3.91c-1.83,0.2-3.65,0.35-5.48,0.45
			c-1.83,0.1-3.65,0.16-5.43,0.1c-3.22-0.12-6.39-0.69-9.14-2.26c0,0,0,0,0,0c0.04-0.28,0.13-0.6,0.3-0.96
			c0.36-0.7,0.97-1.45,1.7-2.07c0.74-0.63,1.52-1.15,2.45-1.6l2.88-1.41c3.88-1.76,7.83-3.35,11.88-4.45
			c4.04-1.14,8.14-2.04,12.29-2.53c2.07-0.32,4.15-0.4,6.24-0.57c2.09-0.02,4.18-0.15,6.27-0.03c4.18,0.08,8.37,0.6,12.52,1.37
			c4.16,0.73,8.27,1.93,12.34,3.31l1.47,0.55C341.02,72.32,331.54,74.42,322.08,76.55z M370.57,102.18
			c2.46-1.91,4.87-3.86,7.29-5.82c2.4-1.96,4.81-3.92,7.17-5.92c2.36-2,4.7-4.01,7.04-6.04c2.32-2.04,4.61-4.1,6.89-6.16
			c1.81-1.66,3.61-3.33,5.39-5.01c0.84,4.73,2.39,9.39,4.69,13.8c1.19,2.28,2.57,4.5,4.11,6.65c-0.37-0.01-0.73-0.02-1.11-0.05
			l-2.09-0.07c-0.7-0.01-1.39,0.02-2.09,0.03l-2.1,0.04l-2.09,0.15c-0.7,0.06-1.4,0.1-2.09,0.17l-2.08,0.25
			c-0.69,0.09-1.39,0.15-2.08,0.27l-2.06,0.36c-1.38,0.22-2.74,0.53-4.1,0.82c-2.72,0.59-5.4,1.33-8.04,2.15
			c-2.64,0.82-5.24,1.73-7.8,2.7c-1.97,0.77-3.91,1.59-5.84,2.43C369.91,102.69,370.24,102.44,370.57,102.18z M376.31,82.89
			l3.38-6.4l1.08-2.03c0.08-0.15,0.16-0.29,0.24-0.44c-0.62,1.83-1.39,3.6-2.33,5.29C377.99,80.55,377.2,81.75,376.31,82.89z
			 M362.31,75.28l1.35-3.49c0.95-0.2,1.91-0.41,2.86-0.61c5.03-1.05,10.07-2.04,15.12-2.97c-0.31,0.18-0.61,0.37-0.87,0.59
			c-0.81,0.66-1.38,1.4-1.87,2.12c-0.48,0.72-0.87,1.47-1.22,2.16l-1.04,2.06l-4.13,8.23c-0.86,1.72-1.7,3.45-2.54,5.18
			c-2.75,1.6-5.98,2.54-9.22,2.68c-1.53,0.06-3.06-0.07-4.53-0.38L362.31,75.28z M352.64,95.86c-0.14,0.55-0.29,1.1-0.44,1.65
			l-2.91,8.24c0.02-1.17,0.06-2.33,0.12-3.5c0.12-2.14,0.27-4.27,0.51-6.4c0.14-1.29,0.32-2.57,0.51-3.85
			c0.9,0.52,1.85,0.95,2.83,1.3C353.06,94.16,352.86,95.01,352.64,95.86z M342.52,125.54c1.48-3.7,2.95-7.4,4.42-11.1
			c0.03,0.29,0.05,0.58,0.08,0.86l0,0.04c0.05,0.47,0.41,0.88,0.93,1.01c0.67,0.17,1.37-0.2,1.55-0.82c0.94-3.2,1.77-6.42,2.55-9.65
			c0.78-3.23,1.48-6.47,2.09-9.73c0,0,0,0,0,0l0.9-2.3c1.91,0.48,3.89,0.68,5.85,0.61c2.34-0.08,4.65-0.51,6.83-1.25
			c-1.07,2.26-2.14,4.51-3.18,6.78c-0.62,1.35-1.23,2.7-1.83,4.05c-3.15,2.36-6.31,4.71-9.46,7.07l-0.02,0.01
			c-0.68,0.5-0.83,1.37-0.32,2.03c0.55,0.72,1.68,0.92,2.53,0.44c1.38-0.78,2.77-1.54,4.17-2.3c-0.77,1.87-1.53,3.73-2.27,5.61
			c-0.54,1.41-1.08,2.81-1.6,4.23C351.32,122.57,346.91,124.04,342.52,125.54z M348.82,126.88c1.84-0.64,3.69-1.25,5.54-1.88
			c-0.09,0.25-0.18,0.5-0.26,0.75C352.33,126.1,350.57,126.48,348.82,126.88z M402.05,126.46c-1.25,2.8-2.45,5.67-3.36,8.66
			c-1.89-2.53-4.4-4.73-7.36-6.42c-3.59-2.05-7.69-3.36-11.85-4.08c-4.17-0.72-8.42-0.89-12.6-0.63c-3.89,0.24-7.69,0.79-11.4,1.49
			c0.14-0.34,0.29-0.67,0.43-1.01c0.89-0.3,1.77-0.61,2.66-0.9c12.59-4.22,25.3-8.19,38.13-11.89c4.86-1.42,9.76-2.78,14.66-4.12
			C407.99,113.76,404.9,120.07,402.05,126.46z M412.81,104.94c-5.71,1.41-11.4,2.87-17.07,4.38c-12.81,3.46-25.52,7.19-38.1,11.2
			c0.45-1.01,0.89-2.01,1.35-3.02c1.18-2.63,2.41-5.23,3.66-7.83c2.26-1.18,4.54-2.34,6.83-3.46c2.39-1.15,4.81-2.25,7.27-3.29
			c2.45-1.05,4.93-2.04,7.46-2.94c1.27-0.43,2.52-0.91,3.82-1.29c1.29-0.4,2.56-0.84,3.87-1.18c1.3-0.36,2.6-0.74,3.93-1.03
			c1.32-0.31,2.64-0.63,3.98-0.87l2.01-0.39c0.67-0.12,1.35-0.2,2.03-0.31l2.03-0.3l2.05-0.22c0.68-0.07,1.37-0.16,2.06-0.21
			l2.07-0.12c0.44-0.02,0.88-0.05,1.32-0.08c0.04,0.05,0.07,0.1,0.11,0.15c0.87,1.12,1.66,2.29,2.85,3.33
			c0.17,0.15,0.36,0.29,0.55,0.43C415.47,100.24,414.13,102.59,412.81,104.94z"/>
	</g>
</g>
<g id="creations" class="st2">
	<g id="creation_2_" class="st3">
		<path class="st4" d="M164.6,152.38c-1.13-0.65-2.01-1.55-2.64-2.71c-0.63-1.16-0.95-2.47-0.95-3.95c0-1.48,0.32-2.79,0.95-3.95
			c0.63-1.16,1.51-2.06,2.64-2.7c1.13-0.64,2.4-0.96,3.82-0.96c1.11,0,2.13,0.21,3.08,0.63c0.94,0.42,1.72,1.03,2.35,1.82
			l-0.41,0.44c-0.56-0.78-1.28-1.36-2.16-1.75c-0.87-0.39-1.83-0.58-2.86-0.58c-1.3,0-2.47,0.3-3.51,0.89
			c-1.04,0.59-1.85,1.43-2.43,2.51c-0.58,1.08-0.87,2.3-0.87,3.66c0,1.38,0.29,2.6,0.87,3.67c0.58,1.07,1.39,1.9,2.43,2.51
			c1.04,0.6,2.21,0.9,3.51,0.9c1.03,0,1.98-0.19,2.86-0.58c0.87-0.39,1.59-0.97,2.16-1.75l0.41,0.44c-0.62,0.8-1.4,1.4-2.35,1.82
			c-0.94,0.42-1.97,0.63-3.08,0.63C167,153.36,165.72,153.03,164.6,152.38z"/>
		<path class="st4" d="M185.13,139.15c1.01-0.69,2.26-1.04,3.76-1.04v0.58h-0.18c-1.81,0-3.22,0.58-4.23,1.73
			c-1.01,1.16-1.52,2.74-1.52,4.74v8.1h-0.58V138.2h0.58v3.91C183.4,140.83,184.12,139.84,185.13,139.15z"/>
		<path class="st4" d="M205.97,152.21c0.9-0.4,1.65-0.98,2.23-1.73l0.41,0.41c-0.66,0.8-1.48,1.41-2.45,1.84
			c-0.97,0.43-2.01,0.64-3.12,0.64c-1.44,0-2.73-0.33-3.88-0.98c-1.15-0.65-2.05-1.56-2.7-2.73c-0.65-1.17-0.98-2.48-0.98-3.93
			c0-1.48,0.31-2.79,0.92-3.93s1.46-2.05,2.55-2.7c1.09-0.65,2.32-0.98,3.7-0.98c1.26,0,2.39,0.3,3.4,0.9c1,0.6,1.8,1.42,2.39,2.45
			c0.59,1.03,0.94,2.16,1.03,3.38l-13.23,2.59c0.35,1.63,1.14,2.93,2.36,3.91c1.22,0.97,2.7,1.46,4.43,1.46
			C204.09,152.81,205.07,152.61,205.97,152.21z M199.25,139.57c-1.01,0.6-1.8,1.43-2.36,2.49c-0.56,1.06-0.85,2.25-0.85,3.57
			c0,0.45,0.03,0.87,0.09,1.28l12.74-2.51c-0.12-1.01-0.45-1.96-0.99-2.84c-0.54-0.88-1.27-1.59-2.17-2.11
			c-0.9-0.52-1.92-0.79-3.05-0.79C201.4,138.67,200.26,138.97,199.25,139.57z M205.14,132.37h1.17l-4.37,3.21h-0.87L205.14,132.37z"
			/>
		<path class="st4" d="M247.81,152.28c-0.33,0.35-0.76,0.62-1.3,0.8c-0.53,0.18-1.08,0.28-1.65,0.28c-1.17,0-2.07-0.33-2.7-1.01
			c-0.63-0.67-0.95-1.57-0.95-2.7v-14.75h0.58v3.29h5.1v0.55h-5.1v10.76c0,1.07,0.26,1.89,0.79,2.45c0.52,0.56,1.29,0.85,2.3,0.85
			c1.01,0,1.85-0.31,2.51-0.93L247.81,152.28z"/>
		<path class="st4" d="M255.83,138.2h0.58v15.07h-0.58V138.2z"/>
		<path class="st4" d="M268.81,152.38c-1.12-0.65-1.99-1.56-2.62-2.73c-0.63-1.17-0.95-2.48-0.95-3.93c0-1.46,0.32-2.76,0.95-3.92
			c0.63-1.16,1.51-2.06,2.62-2.71c1.12-0.65,2.37-0.98,3.75-0.98s2.63,0.33,3.75,0.98c1.12,0.65,1.99,1.55,2.62,2.71
			c0.63,1.16,0.95,2.46,0.95,3.92c0,1.46-0.32,2.77-0.95,3.93c-0.63,1.17-1.51,2.07-2.62,2.73c-1.12,0.65-2.37,0.98-3.75,0.98
			S269.92,153.03,268.81,152.38z M275.99,151.9c1.03-0.6,1.84-1.44,2.42-2.52c0.58-1.08,0.87-2.3,0.87-3.66s-0.29-2.58-0.87-3.66
			c-0.58-1.08-1.39-1.91-2.42-2.51c-1.03-0.59-2.18-0.89-3.44-0.89s-2.41,0.3-3.44,0.89c-1.03,0.59-1.84,1.43-2.42,2.51
			c-0.58,1.08-0.87,2.3-0.87,3.66s0.29,2.58,0.87,3.66c0.58,1.08,1.39,1.92,2.42,2.52c1.03,0.6,2.18,0.9,3.44,0.9
			S274.96,152.51,275.99,151.9z"/>
		<path class="st4" d="M233.32,145.72c0-1.46-0.32-2.76-0.95-3.92c-0.63-1.16-1.51-2.06-2.62-2.71c-1.12-0.65-2.37-0.98-3.75-0.98
			s-2.63,0.33-3.75,0.98c-1.12,0.65-1.99,1.55-2.62,2.71c-0.63,1.16-0.95,2.46-0.95,3.92c0,1.46,0.32,2.77,0.95,3.93
			c0.63,1.17,1.51,2.07,2.62,2.73c1.12,0.65,2.37,0.98,3.75,0.98s2.63-0.33,3.75-0.98c1.12-0.65,1.99-1.56,2.62-2.73
			c0.14-0.26,0.26-0.52,0.36-0.79v4.41h0.58v-7.54h0C233.32,145.73,233.32,145.73,233.32,145.72z M231.86,149.38
			c-0.58,1.08-1.39,1.92-2.42,2.52c-1.03,0.6-2.18,0.9-3.44,0.9c-1.26,0-2.41-0.3-3.44-0.9c-1.03-0.6-1.84-1.44-2.42-2.52
			c-0.58-1.08-0.87-2.3-0.87-3.66s0.29-2.58,0.87-3.66c0.58-1.08,1.39-1.91,2.42-2.51c1.03-0.59,2.18-0.89,3.44-0.89
			c1.26,0,2.41,0.3,3.44,0.89c1.03,0.59,1.84,1.43,2.42,2.51c0.58,1.08,0.87,2.3,0.87,3.66S232.44,148.3,231.86,149.38z"/>
		<path class="st4" d="M299.26,139.73c1.07,1.08,1.6,2.63,1.6,4.65v8.89h-0.58v-8.89c0-1.85-0.47-3.26-1.41-4.24
			c-0.94-0.98-2.28-1.47-4.01-1.47c-1.96,0-3.51,0.59-4.65,1.76c-1.14,1.18-1.7,2.73-1.7,4.65v8.19h-0.58V138.2h0.58v4.02
			c0.47-1.28,1.24-2.29,2.33-3.02c1.09-0.73,2.42-1.09,3.99-1.09C296.72,138.12,298.2,138.65,299.26,139.73z"/>
		<path class="st4" d="M310.75,152.78c-1.07-0.39-1.9-0.88-2.48-1.49l0.35-0.47c0.58,0.56,1.37,1.04,2.35,1.41
			c0.98,0.38,2.04,0.57,3.19,0.57c1.71,0,2.97-0.3,3.79-0.89c0.82-0.59,1.22-1.41,1.22-2.46c0-0.76-0.22-1.36-0.66-1.79
			c-0.44-0.44-0.97-0.76-1.6-0.96c-0.63-0.2-1.5-0.41-2.61-0.63c-1.19-0.21-2.14-0.44-2.87-0.68c-0.73-0.24-1.34-0.63-1.84-1.17
			c-0.5-0.53-0.74-1.28-0.74-2.23c0-1.09,0.45-2.01,1.36-2.75c0.9-0.75,2.23-1.12,3.98-1.12c0.93,0,1.86,0.14,2.77,0.42
			c0.91,0.28,1.65,0.66,2.22,1.12l-0.35,0.47c-0.58-0.47-1.28-0.83-2.1-1.08c-0.82-0.25-1.66-0.38-2.54-0.38
			c-1.57,0-2.75,0.31-3.54,0.92c-0.79,0.61-1.18,1.41-1.18,2.4c0,0.8,0.22,1.42,0.67,1.88s1,0.79,1.66,1.01
			c0.66,0.21,1.54,0.42,2.62,0.61c1.19,0.23,2.13,0.47,2.83,0.7c0.7,0.23,1.29,0.61,1.78,1.12c0.49,0.51,0.73,1.23,0.73,2.14
			c0,1.19-0.48,2.13-1.43,2.84c-0.95,0.71-2.34,1.06-4.17,1.06C312.96,153.36,311.82,153.17,310.75,152.78z"/>
	</g>
</g>
</svg>
