<?xml version="1.0" encoding="utf-8"?>
<!-- Generator: Adobe Illustrator 26.0.1, SVG Export Plug-In . SVG Version: 6.00 Build 0)  -->
<svg version="1.1" id="Calque_1" xmlns="http://www.w3.org/2000/svg" xmlns:xlink="http://www.w3.org/1999/xlink" x="0px" y="0px"
	 viewBox="0 0 476.9 166.9" style="enable-background:new 0 0 476.9 166.9;" xml:space="preserve">
<style type="text/css">
	.st0{fill:#C0CFC5;}
	.st1{fill:#3D726A;}
	.st2{fill:#604B3B;}
</style>
<path class="st0" d="M23.5,8.2c0.1,0,0.2,0,0.3,0.1c5.5-1.1,11.1-1.9,16.7-2.4c5.7-0.5,11.4-0.8,17.1-0.7C69,5.3,80.4,6.4,91.7,8.4
	c6.8,1.2,9.3,3.2,18.8,4.5c0.5,0.1,8.1,1.4,9.3,1.5c0,0-7.8,4.5-23.5,4.5c0,0,1.8,1.6,13.1,0.6c10.9-1,14.9-3,14.9-3
	c10.8,3.4,22.1,7.4,32.6,11.8c10.4,4.4,20.7,9.1,30.9,14.1c3.1,1.5,3.5,1.8,5.4,1.9c6.4,4,11.3,20.9,5.1,31.5c0,0,0,0,1.1,1.1
	c6.2-6.4,4.7-19.2-0.8-28.4c9,8.2,13.2,23.4,6.5,34.4c0,0,0.6,0.6,3.3,3.7c5.3-6.4,6-21.3-0.5-34.3c0,0,15.6,20.7,6.9,41.4
	c0,0,1.7,1.9,3.4,3.9c5.3-8.4,4.1-12.1,3.6-17.5c-0.4-5-2.6-12.5,1.5-13.9c0.5,0.2-2.7-0.4-1.1,8.8c0.9,4.9,4.8,10.3,2.6,18.7
	c-2.8,11,11.1,18.3,10.9,22.5c1.7,1.7,3.5,3.3,5.3,4.9c1.1,0.9,2.2,1.8,3.2,2.7c1.1,0.9,2.3,1.7,3.4,2.6c2.5,2.1,5.5,3.9,8.5,5.6
	c-0.2,0-2.5-0.3-5.1,0c-2.2-1.3-4.6-2.7-5.2-3.2c-7.7-5.2-13.5-11.7-14.6-11.8c-1.4-0.2-2.8-2.7-4-3.5c-5.5,1.4-14.1,0.3-22.4-5.1
	c-9.6-6.2-20.9-3.6-19.9-4c6.4-1.9,17-0.2,24.4,3.2c10.5,4.7,13,0.5,13,0.5c-0.5-0.5-4.7-5.4-4.7-5.4c-27.8-0.3-50.8-6.1-70.7-21.9
	c6.8,5.4,34.1,15.3,61.3,14.8c1.9,0,3.1-0.3,3.1-0.3s-1.2-1.4-2.5-2.8c-1-1.1-1.5-1.8-2.2-2.8c-9.4,0.8-24.6,0.2-42.3-5
	C151.9,81,142,75.9,137,71c10.5,1.1,19-1,27.6-3.2c6.2-1.6,9.9,2.7,11.8,7.5c1.6-8.5,1.2-9.6,0.6-15.1c-0.6-5.5-7.4-11-14.8-12.6
	c-5.2-1.1-8.6-1.4-12.9-4.1c-1.6,0-3.9-0.8-4,1.4c-0.1,1.8-2.9,4.7-7.1,2.5c-10.4-5.4-12.5-1.7-15.7-7c8.6,2.5,10.9-3,17.8,0
	c2.3,1,2.4-1.4,2.4-2.6c-0.4-0.5-0.7-0.9-1.1-1.3c-2.8-2.8-6.5-3.7-10.6-4.2c-8.5-1.2-16.4-2.5-25.5-0.1c-7.5,2-17,8.2-22.9,4.5
	C63.6,24.6,56.9,23.2,46.3,18c9.7,3.7,23.1-2.1,42.6,1.4c0,0,4,1-5.2-1.4c-11.4-1.4-20.4,0.2-27.4-0.2c-7.9-0.5-14-2.2-14-2.2
	c-9-5.2-13.9-6.3-18.5-7.5c-0.1,0-0.2,0-0.2,0c0.1,0,0.1,0,0.2,0C23.7,8.2,23.6,8.2,23.5,8.2z"/>
<g>
	<path class="st1" d="M269.5,112c-3.1,3.5-7.3,6.1-11.4,8.2c-4.2,2.1-8.7,3.5-13.3,3.9c-4.6,0.5-9.3,0-13.9-1c-4.6-1-9-2.6-13.3-4.6
		c-2.1-1-4.3-2.1-6.2-3.2s-3.8-2.5-5.6-3.9c-0.1-0.1-0.2-0.2-0.3-0.3c9.5-1.5,19.1-3.4,28.6-6.3c5-1.5,9.9-3.4,14.8-5.8
		c4.9-2.4,9.7-5.4,14.1-9.6c2.2-2.1,4.2-4.5,5.8-7.2c0.4-0.7,0.8-1.4,1.1-2.1l0.5-1.1l0.5-1.1c0.3-0.7,0.6-1.5,0.8-2.3
		c0.3-0.8,0.4-1.5,0.6-2.2c1.4-5.7,1.2-12.4-1-18.3c-2.1-5.9-6-10.8-10.1-14.7c-4.2-3.9-8.8-7-13.4-9.6c-9.4-5.2-19.1-8.7-28.9-11.6
		c-4.9-1.4-9.8-2.7-14.7-3.8s-9.8-2.2-14.8-3c-9.9-1.8-20-3.1-30.1-3.8c-10.1-0.7-20.3-0.9-30.7-0.1c-10.3,0.8-20.7,2.6-30.9,6.5
		c-2.5,1-5,2.2-7.4,3.4c-2.3,1.2-4.5,2.5-6.8,4c-2.2,1.4-4.5,3-6.6,4.8c-2.2,1.8-4.3,3.9-6.2,6.5c-0.9,1.3-1.8,2.9-2.4,4.6
		c-0.6,1.7-1.1,3.8-1,5.9c0.1,2.1,0.6,4.2,1.5,6s2,3.3,3.3,4.5c2.5,2.5,5.1,4.1,7.8,5.4c1.3,0.7,2.7,1.2,4.1,1.7
		c0.7,0.2,1.4,0.5,2.1,0.7c0.8,0.2,1.5,0.4,2.2,0.5c2.8,0.6,5.3,0.9,7.8,1.2c2.5,0.3,5,0.6,7.4,0.8c4.9,0.5,9.6,1.1,14.4,1.8
		c9.4,1.5,18.6,3.6,27.4,6.8c4.3,1.6,8.6,3.6,12.5,5.8c4,2.3,7.7,4.9,11.3,7.8c4.4,3.5,8.5,7.4,12.6,11.4c-2.9,0.3-5.9,0.6-8.8,0.9
		c-19.3,1.7-38.8,2.3-58.4,2.7l-7.4,0.2c-2.4,0-4.8,0.1-7.3,0.1c-4.8,0-9.6-0.1-14.4-0.2c-9.6-0.3-19.1-1.2-28.3-2.9
		c-4.6-0.9-9.1-2-13.4-3.4c-2.2-0.7-4.3-1.5-6.3-2.4s-4-1.9-5.9-3c-3.8-2.2-7.2-4.8-10-7.9c-0.7-0.8-1.4-1.6-2-2.4L19,79.7l-0.3-0.4
		L18.5,79c-0.3-0.4-0.5-0.8-0.8-1.2c-1-1.6-1.8-3.4-2.4-5.3c-1.1-3.7-1.1-7.5,0-11.3c1.1-3.7,3.3-7.3,6.2-10.6
		c2.9-3.3,6.3-6.2,10.1-8.8c1.9-1.3,3.8-2.6,5.9-3.8c1-0.6,2-1.2,3.1-1.8l3.1-1.8c8.4-4.6,17.1-8.8,26.1-12.3
		c9-3.6,18.2-6.6,27.6-9.1s19-4.3,28.7-5.5c4.9-0.6,9.7-1,14.6-1.2c2.4-0.1,4.9-0.1,7.4,0s4.9,0.2,7.3,0.5c-4.8-1-9.8-1.5-14.7-1.7
		s-9.9-0.2-14.8,0.1C116,5.7,106.1,7,96.4,8.9C76.9,12.7,58,19.2,40,27.8c-8.9,4.2-18,9.3-25.4,17c-3.7,3.8-6.9,8.4-8.7,13.7
		c-2.1,5.6-2.4,11.6-1,17.1C5.6,78.3,6.6,81,8,83.5c0.4,0.6,0.7,1.2,1.1,1.9l0.5,0.8l0.6,0.8c0.8,1.1,1.6,2.2,2.5,3.2
		c3.5,4.1,7.8,7.6,12.3,10.5c2.3,1.4,4.6,2.7,7,3.9c2.4,1.1,4.8,2.2,7.3,3.1c4.9,1.8,9.9,3.2,15,4.3c10.1,2.2,20.2,3.3,30.2,4
		c5,0.3,10,0.5,15.1,0.6c2.5,0.1,5,0.1,7.5,0.1h7.4c19.7,0,39.6-0.3,59.5-1.7c7.3-0.5,14.6-1.2,21.9-2.1c1.7,1.5,3.5,2.9,5.4,4.3
		c2.1,1.5,4.3,2.9,6.6,4.1c2.4,1.2,4.6,2.2,7,3.1c4.7,1.8,9.6,3.4,14.7,4.2c5.1,0.9,10.4,1,15.5,0.1c5.1-0.8,10.1-2.7,14.4-5.3
		c4.4-2.6,8.1-5.9,11.5-9.5c7.2-7.8,10.6-16,10.6-16C276.8,104.6,276.4,104.3,269.5,112z M191.9,97.8c-5.2-5.7-10.6-11.6-16.7-17
		c-3.8-3.3-7.8-6.5-12.2-9.3s-9-5.1-13.7-7.1c-9.5-4-19.4-6.6-29.4-8.5c-5-0.9-9.9-1.7-14.8-2.4l-7.2-1c-2.4-0.4-4.7-0.7-6.7-1.2
		c-3.6-0.8-7.6-2.9-9.4-4.9c-0.4-0.5-0.7-1-0.9-1.3c-0.2-0.4-0.2-0.6-0.2-0.9c0-0.5,0.3-1.5,1.3-2.7c0.9-1.2,2.3-2.6,3.9-3.8
		c1.6-1.3,3.4-2.5,5.3-3.6s3.9-2.2,5.9-3.3c2-1,3.9-1.8,5.9-2.6c8.2-3,17.4-4.4,26.7-5.1c9.3-0.6,18.8-0.3,28.3,0.5s19,2.1,28.4,3.9
		c4.7,0.9,9.3,1.9,14,3s9.2,2.3,13.8,3.7c9,2.7,17.8,6,25.5,10.3c3.8,2.2,7.4,4.6,10.2,7.3c2.9,2.7,5,5.7,6.1,8.7
		c1.1,3,1.3,6.3,0.5,9.8c-0.1,0.4-0.2,0.9-0.3,1.2c-0.1,0.4-0.2,0.7-0.4,1.1l-0.2,0.5l-0.3,0.5c-0.2,0.4-0.4,0.7-0.6,1
		c-0.8,1.4-1.9,2.7-3.2,4c-2.6,2.6-6.1,4.8-10,6.7c-3.9,1.9-8.1,3.5-12.4,4.9c-8.7,2.8-18.1,4.7-27.5,6.3
		C198.4,97,195.1,97.4,191.9,97.8z"/>
	<ellipse transform="matrix(0.1602 -0.9871 0.9871 0.1602 84.8492 371.007)" class="st1" cx="260.5" cy="135.6" rx="4.2" ry="4.2"/>
</g>
<g id="signature_2_">
	<path class="st2" d="M473.3,98.2l-4.5,0.8l-10,1.9l-9.9,2L439,105c-5.9,1.3-11.7,2.6-17.5,4c0.8-1.5,1.7-3.1,2.6-4.6
		c0.4,0,0.7,0.1,1.1,0c1.9-0.2,3.4-1.1,4.6-2.1s2.1-2.2,2.9-3.3c1.7-2.3,3.2-4.7,4.5-7.1c2.6-5,4.3-10.2,5-15.6
		c0.1-0.4-0.2-0.8-0.6-1.1c-0.6-0.3-1.5-0.2-1.9,0.3l0,0c-4.5,5.9-8.8,11.9-12.8,18c-1.8,2.8-3.6,5.6-5.3,8.5
		c-0.1-0.1-0.1-0.1-0.2-0.2c-1.1-0.9-1.9-2-2.8-3.1c-1.7-2.2-3.3-4.5-4.7-6.9c-1.3-2.4-2.5-4.8-3.5-7.4c-0.8-2-1.4-4.1-1.9-6.2
		c2.7-2.5,5.3-5,7.8-7.6l-8.1,6.4c0-0.1,0-0.2-0.1-0.2c0,0.1,0,0.2,0,0.2l-6.5,5.1l-7.3,5.8c-2.4,1.9-4.9,3.8-7.3,5.7l-7.4,5.7
		l-7.4,5.7c-0.4,0.3-0.8,0.6-1.1,0.9c1.6-3.2,3.2-6.3,4.9-9.4c0.6-0.3,1.1-0.7,1.6-1c3.6-2.5,6.4-5.9,8.4-9.5s3.2-7.5,3.9-11.5l0,0
		c0-0.1,0-0.3,0-0.5c-0.1-0.5-0.4-1-0.9-1.2c8.5-1.5,17-2.9,25.6-4c7.4-0.9,14.8-1.7,22.2-2.2c3.7-0.2,7.4-0.5,11.1-0.6
		c1.9,0,3.7-0.2,5.6-0.1c0.7,0.1,1.4,0.2,2.1,0.4l0,0c0,0,0.1-0.1,0.2-0.1c0.1-0.1,0.1-0.1,0.2-0.2l0,0c0,0,0,0,0-0.1
		c-0.8-0.3-1.6-0.6-2.5-0.7c-1.9-0.3-3.7-0.2-5.6-0.2c-3.7-0.1-7.5,0-11.2,0c-7.4,0.2-14.9,0.5-22.3,1.2s-14.8,1.5-22.2,2.6
		c-7.4,1.1-14.7,2.3-22.1,3.6c-0.2,0-0.3,0.1-0.5,0.1c0.4-1,0.7-2,1-3l0,0l2.7-6.9c0.2-0.6,0.1-1.3-0.3-1.8
		c-0.5-0.6-1.3-0.5-1.7,0.1l0,0c-1.7,2.3-2.3,5.1-3.1,7.4c-0.6,2.1-1.4,4-2.5,5c-1.5,0.3-2.9,0.6-4.4,0.9c-0.4-0.1-0.8-0.2-1.3-0.4
		c-1-0.3-1.9-0.8-3-1.2l-3.1-1.3c-8.3-3.2-17-5-25.6-5.3c-2.2-0.2-4.3-0.1-6.5-0.1c-2.2,0.1-4.3,0.2-6.5,0.5c-2.2,0.2-4.3,0.6-6.4,1
		c-1.1,0.2-2.1,0.5-3.2,0.7l-1.6,0.4l-1.6,0.5c-4.2,1.1-8.3,2.7-12.4,4.6l-3,1.4c-1,0.5-2.1,1.2-3.1,2c-1,0.9-2,1.9-2.7,3.4
		c-0.4,0.8-0.7,1.7-0.8,2.7c-0.1,1,0,2.1,0.3,3.1c0.1,0.5,0.5,1,0.9,1.3l0,0c3.7,2.5,7.9,3.3,11.7,3.4c1.9,0.1,3.8,0,5.7-0.1
		c1.9-0.1,3.8-0.3,5.6-0.5c0.6-0.1,1.2-0.2,1.8-0.2c-1.5,1.1-2.6,2.3-3.8,3.5c-0.2,0.2-0.3,0.3-0.5,0.5V94c0,0.1-0.1,0.1-0.1,0.2
		c-0.9,1-1.9,2.1-2.7,3.1c-1,1.3-2,2.6-2.9,4c-0.7,1-1.3,2-1.9,3.1c-2.2,0.4-4.4,0.9-6.6,1.5c1.8,0.3,3.7,0.5,5.5,0.6
		c-0.3,0.6-0.6,1.2-0.9,1.8c-0.2,0.3-0.5,0.7-0.7,1c-3.5,5-7,10.2-11.8,13.7c-0.6,0.4-1.2,0.8-1.9,1.2l-1,0.5
		c-0.3,0.2-0.6,0.3-0.7,0.3l0,0c-0.1-0.1-0.2-0.2-0.2-0.5c-0.1-0.2-0.2-0.5-0.2-0.9c-0.5-2.8-0.6-5.7-0.4-8.5
		c0.5-5.7,2.4-11.4,5.7-16.7c-4.7,4.4-7.8,10.2-9,16.4c-0.6,3.1-0.7,6.2-0.3,9.3c0,0.4,0.1,0.9,0.3,1.3c0.1,0.5,0.4,1,0.8,1.5
		s1.1,1.1,2,1.4s1.8,0.2,2.5,0.1c0.7-0.2,1.2-0.4,1.7-0.6l1.2-0.6c0.8-0.5,1.5-0.9,2.3-1.4c2.9-2.1,5.1-4.6,7.1-7.2
		c1.9-2.6,3.5-5.3,5-8c0.7-1.4,1.5-2.7,2.2-4.1c0.5,0,1,0,1.5,0c3.5,0,6.9-0.1,10.3-0.5c-0.4,1.3-0.8,2.6-1.3,3.9l-1.8,5.3
		c-0.6,1.8-1.1,3.6-1.6,5.4s-0.9,3.6-1.1,5.5l-0.2,1.4l-0.1,1.4c0,0.2,0,0.4,0,0.6c0.2,0.1,0.3,0.2,0.5,0.3v-0.1l0.2-0.7l0.4-1.3
		l0.5-1.3c0.6-1.7,1.3-3.5,2-5.2s1.5-3.4,2.3-5.1l2.3-5.1c0.8-1.8,1.5-3.5,2.2-5.3c2-0.3,4-0.6,5.9-0.9c0,0.2-0.1,0.5-0.2,0.7
		c-0.6,3.1-0.7,6.2-0.3,9.3c0,0.4,0.1,0.9,0.3,1.3c0.1,0.5,0.4,1,0.8,1.5s1.1,1.1,2,1.4s1.8,0.2,2.5,0.1c0.7-0.2,1.2-0.4,1.7-0.6
		l1.2-0.6c0.8-0.5,1.5-0.9,2.3-1.4c2.9-2.1,5.1-4.6,7.1-7.2c1.9-2.6,3.5-5.3,5-8c3-5.4,5.5-11,7.6-16.8c-3.7,5.1-7,10.3-10.5,15.4
		c-3.5,5-7,10.2-11.8,13.7c-0.6,0.4-1.2,0.8-1.9,1.2l-1,0.5c-0.3,0.2-0.6,0.3-0.7,0.3l0,0c-0.1-0.1-0.2-0.2-0.2-0.5
		c-0.1-0.2-0.2-0.5-0.2-0.9c-0.5-2.8-0.6-5.7-0.4-8.5c0-0.6,0.1-1.1,0.2-1.7c2.3-0.5,4.6-1.1,6.9-2c-2.2-0.2-4.3-0.3-6.5-0.3
		c0.9-4.4,2.6-8.7,5.1-12.8c-3.8,3.6-6.5,8-8,12.8c-0.3,0-0.7,0-1,0c-1.5,0-3,0.1-4.5,0.2c0.2-0.6,0.3-1.1,0.5-1.7
		c0.2-0.9,0.5-1.8,0.6-2.8c0.2-0.9,0.3-1.9,0.4-2.8s0.2-1.9,0.1-3.1c-0.1-0.9-0.4-2-1.1-3c4.1-0.8,8.1-1.6,12.1-2.5l21.8-5.1
		c4.8-1.1,9.7-2.2,14.5-3.2c0.7,0,1.3-0.2,2-0.4l-0.7,1.8l-5.1,14.2c0.6-4,1.1-7.9,1.4-11.9c-0.8,4.6-1.8,9.2-2.8,13.7
		c-1.4-0.5-2.6-1.2-3.7-2.1l0,0c-0.2-0.2-0.5-0.3-0.9-0.4c-0.9-0.1-1.7,0.5-1.9,1.3c-0.3,2.2-0.6,4.4-0.8,6.5
		c-0.2,2.2-0.3,4.4-0.4,6.6c-0.1,3.6,0.1,7.1,0.4,10.7c-1.5,4.2-3,8.5-4.5,12.8c-7.7,2.6-15.3,5.3-22.9,8.2
		c-0.9,0.3-1.5,1.2-1.2,2.1c0.3,0.9,1.5,1.5,2.6,1.2l0,0l23.2-5.3c2.9-0.7,5.8-1.3,8.7-1.9c-0.5,1.5-0.9,3-1.4,4.5l0,0l0,0
		c0,0.1,0,0.2,0.2,0.3c0.1,0,0.3,0,0.3-0.1l0,0c0.6-1.6,1.3-3.2,1.9-4.8c4.5-0.9,8.9-1.7,13.4-1.9c3.8-0.2,7.7-0.1,11.4,0.6
		c3.7,0.6,7.2,1.8,10.3,3.5c3,1.7,5.5,4,7.1,6.7c0.6,1,1.1,2,1.4,3.1c-0.2,2-0.1,4.1,0.3,6.1c0.1,0.7,0.8,1.3,1.7,1.4
		c1.2,0.2,2.3-0.5,2.5-1.4l0,0c0.5-2.2,0.3-4.4-0.2-6.5c0.1-1.3,0.4-2.5,0.7-3.8c0.8-3.3,2.1-6.5,3.5-9.7c2.8-6.5,5.9-12.9,9.2-19.3
		c0.4-0.7,0.7-1.4,1.1-2.1c6.4-1.7,12.9-3.4,19.3-5l9.8-2.4l9.8-2.3l9.9-2.2l4.3-0.9v-0.1C473.3,98.4,473.3,98.3,473.3,98.2
		L473.3,98.2z M429.8,94.7c2.8-4.4,5.7-8.8,8.7-13.2c-0.8,3.2-1.9,6.4-3.4,9.5c-1.2,2.4-2.5,4.8-4.1,7c-0.8,1.1-1.6,2.2-2.6,3.2
		c-1,0.9-2.2,1.7-3.5,1.8c-0.1,0-0.1,0-0.2,0C426.4,100.2,428.1,97.5,429.8,94.7z M276.5,125.2C276.5,125.3,276.5,125.3,276.5,125.2
		L276.5,125.2z M322.8,115.8L322.8,115.8L322.8,115.8z M311.5,94.4c-0.1,0.9-0.2,1.7-0.4,2.6c-0.1,0.9-0.3,1.7-0.5,2.6
		s-0.4,1.8-0.7,2.7c-0.5,0-1,0.1-1.6,0.1c-3.3,0.3-6.6,0.7-9.9,1.2c0.2-0.3,0.5-0.6,0.7-1c2-2.5,4.2-4.8,6.5-7
		c1.2-1.1,2.4-2.2,3.6-3.1c0.7-0.5,1.5-0.9,2.2-1.2C311.6,92.3,311.6,93.3,311.5,94.4z M326.1,81.6c-7.3,1.6-14.5,3.1-21.8,3.9
		c-1.8,0.2-3.7,0.4-5.5,0.5s-3.7,0.2-5.4,0.1c-3.2-0.1-6.4-0.7-9.1-2.3l0,0c0-0.3,0.1-0.6,0.3-1c0.4-0.7,1-1.5,1.7-2.1
		s1.5-1.2,2.4-1.6l2.9-1.4c3.9-1.8,7.8-3.3,11.9-4.4c4-1.1,8.1-2,12.3-2.5c2.1-0.3,4.2-0.4,6.2-0.6c2.1,0,4.2-0.2,6.3,0
		c4.2,0.1,8.4,0.6,12.5,1.4c4.2,0.7,8.3,1.9,12.3,3.3l1.5,0.6C345,77.4,335.5,79.5,326.1,81.6z M374.6,107.3
		c2.5-1.9,4.9-3.9,7.3-5.8c2.4-2,4.8-3.9,7.2-5.9c2.4-2,4.7-4,7-6s4.6-4.1,6.9-6.2c1.8-1.7,3.6-3.3,5.4-5c0.8,4.7,2.4,9.4,4.7,13.8
		c1.2,2.3,2.6,4.5,4.1,6.6c-0.4,0-0.7,0-1.1,0l-2.1-0.1c-0.7,0-1.4,0-2.1,0h-2.1l-2.1,0.2c-0.7,0.1-1.4,0.1-2.1,0.2l-2.1,0.3
		c-0.7,0.1-1.4,0.2-2.1,0.3l-2.1,0.4c-1.4,0.2-2.7,0.5-4.1,0.8c-2.7,0.6-5.4,1.3-8,2.1c-2.6,0.8-5.2,1.7-7.8,2.7
		c-2,0.8-3.9,1.6-5.8,2.4C373.9,107.8,374.2,107.5,374.6,107.3z M380.3,88l3.4-6.4l1.1-2c0.1-0.2,0.2-0.3,0.2-0.4
		c-0.6,1.8-1.4,3.6-2.3,5.3C382,85.6,381.2,86.8,380.3,88z M366.3,80.4l1.4-3.5c1-0.2,1.9-0.4,2.9-0.6c5-1,10.1-2,15.1-3
		c-0.3,0.2-0.6,0.4-0.9,0.6c-0.8,0.7-1.4,1.4-1.9,2.1s-0.9,1.5-1.2,2.2l-1,2.1l-4.1,8.2c-0.9,1.7-1.7,3.4-2.5,5.2
		c-2.8,1.6-6,2.5-9.2,2.7c-1.5,0.1-3.1-0.1-4.5-0.4L366.3,80.4z M356.7,101c-0.1,0.5-0.3,1.1-0.4,1.6l-2.9,8.2
		c0-1.2,0.1-2.3,0.1-3.5c0.1-2.1,0.3-4.3,0.5-6.4c0.1-1.3,0.3-2.6,0.5-3.9c0.9,0.5,1.8,1,2.8,1.3C357.1,99.2,356.9,100.1,356.7,101z
		 M346.5,130.6c1.5-3.7,3-7.4,4.4-11.1c0,0.3,0,0.6,0.1,0.9l0,0c0.1,0.5,0.4,0.9,0.9,1c0.7,0.2,1.4-0.2,1.5-0.8
		c0.9-3.2,1.8-6.4,2.5-9.6c0.8-3.2,1.5-6.5,2.1-9.7l0,0l0.9-2.3c1.9,0.5,3.9,0.7,5.8,0.6c2.3-0.1,4.6-0.5,6.8-1.3
		c-1.1,2.3-2.1,4.5-3.2,6.8c-0.6,1.3-1.2,2.7-1.8,4.1c-3.1,2.4-6.3,4.7-9.5,7.1l0,0c-0.7,0.5-0.8,1.4-0.3,2c0.6,0.7,1.7,0.9,2.5,0.4
		c1.4-0.8,2.8-1.5,4.2-2.3c-0.8,1.9-1.5,3.7-2.3,5.6c-0.5,1.4-1.1,2.8-1.6,4.2C355.3,127.7,350.9,129.1,346.5,130.6z M352.8,132
		c1.8-0.6,3.7-1.3,5.5-1.9c-0.1,0.3-0.2,0.5-0.3,0.8C356.3,131.2,354.6,131.6,352.8,132z M406.1,131.5c-1.3,2.8-2.4,5.7-3.4,8.7
		c-1.9-2.5-4.4-4.7-7.4-6.4c-3.6-2-7.7-3.4-11.8-4.1c-4.2-0.7-8.4-0.9-12.6-0.6c-3.9,0.2-7.7,0.8-11.4,1.5c0.1-0.3,0.3-0.7,0.4-1
		c0.9-0.3,1.8-0.6,2.7-0.9c12.6-4.2,25.3-8.2,38.1-11.9c4.9-1.4,9.8-2.8,14.7-4.1C412,118.9,408.9,125.2,406.1,131.5z M416.8,110
		c-5.7,1.4-11.4,2.9-17.1,4.4c-12.8,3.5-25.5,7.2-38.1,11.2c0.4-1,0.9-2,1.4-3c1.2-2.6,2.4-5.2,3.7-7.8c2.3-1.2,4.5-2.3,6.8-3.5
		c2.4-1.1,4.8-2.3,7.3-3.3c2.4-1,4.9-2,7.5-2.9c1.3-0.4,2.5-0.9,3.8-1.3s2.6-0.8,3.9-1.2c1.3-0.4,2.6-0.7,3.9-1s2.6-0.6,4-0.9l2-0.4
		c0.7-0.1,1.4-0.2,2-0.3l2-0.3l2-0.2c0.7-0.1,1.4-0.2,2.1-0.2l2.1-0.1c0.4,0,0.9-0.1,1.3-0.1c0,0,0.1,0.1,0.1,0.2
		c0.9,1.1,1.7,2.3,2.9,3.3c0.2,0.1,0.4,0.3,0.5,0.4C419.5,105.3,418.1,107.7,416.8,110z"/>
</g>
<g id="creation_1_">
	<path class="st2" d="M168.6,157.5c-1.1-0.7-2-1.6-2.6-2.7c-0.6-1.2-0.9-2.5-0.9-3.9c0-1.5,0.3-2.8,0.9-3.9c0.6-1.2,1.5-2.1,2.6-2.7
		c1.1-0.6,2.4-1,3.8-1c1.1,0,2.1,0.2,3.1,0.6c0.9,0.4,1.7,1,2.3,1.8l-0.4,0.4c-0.6-0.8-1.3-1.4-2.2-1.7c-0.9-0.4-1.8-0.6-2.9-0.6
		c-1.3,0-2.5,0.3-3.5,0.9c-1,0.6-1.9,1.4-2.4,2.5c-0.6,1.1-0.9,2.3-0.9,3.7s0.3,2.6,0.9,3.7c0.6,1.1,1.4,1.9,2.4,2.5
		s2.2,0.9,3.5,0.9c1,0,2-0.2,2.9-0.6c0.9-0.4,1.6-1,2.2-1.7l0.4,0.4c-0.6,0.8-1.4,1.4-2.3,1.8c-0.9,0.4-2,0.6-3.1,0.6
		C171,158.4,169.7,158.1,168.6,157.5z"/>
	<path class="st2" d="M189.1,144.2c1-0.7,2.3-1,3.8-1v0.6h-0.2c-1.8,0-3.2,0.6-4.2,1.7c-1,1.2-1.5,2.7-1.5,4.7v8.1h-0.6v-15.1h0.6
		v3.9C187.4,145.9,188.1,144.9,189.1,144.2z"/>
	<path class="st2" d="M210,157.3c0.9-0.4,1.6-1,2.2-1.7l0.4,0.4c-0.7,0.8-1.5,1.4-2.4,1.8c-1,0.4-2,0.6-3.1,0.6
		c-1.4,0-2.7-0.3-3.9-1c-1.1-0.7-2-1.6-2.7-2.7c-0.7-1.2-1-2.5-1-3.9c0-1.5,0.3-2.8,0.9-3.9s1.5-2,2.6-2.7s2.3-1,3.7-1
		c1.3,0,2.4,0.3,3.4,0.9c1,0.6,1.8,1.4,2.4,2.4c0.6,1,0.9,2.2,1,3.4l-13.2,2.6c0.4,1.6,1.1,2.9,2.4,3.9c1.2,1,2.7,1.5,4.4,1.5
		C208.1,157.9,209.1,157.7,210,157.3z M203.3,144.7c-1,0.6-1.8,1.4-2.4,2.5c-0.6,1.1-0.8,2.2-0.8,3.6c0,0.4,0,0.9,0.1,1.3l12.7-2.5
		c-0.1-1-0.4-2-1-2.8c-0.5-0.9-1.3-1.6-2.2-2.1s-1.9-0.8-3-0.8C205.4,143.8,204.3,144.1,203.3,144.7z M209.1,137.5h1.2l-4.4,3.2H205
		L209.1,137.5z"/>
	<path class="st2" d="M251.8,157.4c-0.3,0.3-0.8,0.6-1.3,0.8s-1.1,0.3-1.6,0.3c-1.2,0-2.1-0.3-2.7-1c-0.6-0.7-0.9-1.6-0.9-2.7v-14.7
		h0.6v3.3h5.1v0.6h-5.1v10.6c0,1.1,0.3,1.9,0.8,2.4c0.5,0.6,1.3,0.8,2.3,0.8s1.8-0.3,2.5-0.9L251.8,157.4z"/>
	<path class="st2" d="M259.8,143.3h0.6v15.1h-0.6V143.3z"/>
	<path class="st2" d="M272.8,157.5c-1.1-0.7-2-1.6-2.6-2.7s-0.9-2.5-0.9-3.9c0-1.5,0.3-2.8,0.9-3.9s1.5-2.1,2.6-2.7
		c1.1-0.7,2.4-1,3.7-1s2.6,0.3,3.7,1s2,1.6,2.6,2.7s0.9,2.5,0.9,3.9c0,1.5-0.3,2.8-0.9,3.9s-1.5,2.1-2.6,2.7c-1.1,0.7-2.4,1-3.7,1
		S273.9,158.1,272.8,157.5z M280,157c1-0.6,1.8-1.4,2.4-2.5s0.9-2.3,0.9-3.7s-0.3-2.6-0.9-3.7c-0.6-1.1-1.4-1.9-2.4-2.5
		s-2.2-0.9-3.4-0.9s-2.4,0.3-3.4,0.9c-1,0.6-1.8,1.4-2.4,2.5s-0.9,2.3-0.9,3.7s0.3,2.6,0.9,3.7c0.6,1.1,1.4,1.9,2.4,2.5
		s2.2,0.9,3.4,0.9S279,157.6,280,157z"/>
	<path class="st2" d="M237.3,150.8c0-1.5-0.3-2.8-0.9-3.9c-0.6-1.2-1.5-2.1-2.6-2.7c-1.1-0.7-2.4-1-3.7-1s-2.6,0.3-3.7,1
		c-1.1,0.7-2,1.6-2.6,2.7s-0.9,2.5-0.9,3.9c0,1.5,0.3,2.8,0.9,3.9s1.5,2.1,2.6,2.7c1.1,0.7,2.4,1,3.7,1s2.6-0.3,3.7-1
		c1.1-0.7,2-1.6,2.6-2.7c0.1-0.3,0.3-0.5,0.4-0.8v4.4h0.6v-7.5H237.3L237.3,150.8z M235.9,154.5c-0.6,1.1-1.4,1.9-2.4,2.5
		s-2.2,0.9-3.4,0.9c-1.3,0-2.4-0.3-3.4-0.9c-1-0.6-1.8-1.4-2.4-2.5c-0.6-1.1-0.9-2.3-0.9-3.7s0.3-2.6,0.9-3.7
		c0.6-1.1,1.4-1.9,2.4-2.5s2.2-0.9,3.4-0.9c1.3,0,2.4,0.3,3.4,0.9c1,0.6,1.8,1.4,2.4,2.5c0.6,1.1,0.9,2.3,0.9,3.7
		S236.4,153.4,235.9,154.5z"/>
	<path class="st2" d="M303.3,144.8c1.1,1.1,1.6,2.6,1.6,4.6v8.9h-0.6v-8.9c0-1.8-0.5-3.3-1.4-4.2c-0.9-1-2.3-1.5-4-1.5
		c-2,0-3.5,0.6-4.6,1.8s-1.7,2.7-1.7,4.6v8.2H292v-15.1h0.6v4c0.5-1.3,1.2-2.3,2.3-3c1.1-0.7,2.4-1.1,4-1.1
		C300.7,143.2,302.2,143.7,303.3,144.8z"/>
	<path class="st2" d="M314.8,157.9c-1.1-0.4-1.9-0.9-2.5-1.5l0.3-0.5c0.6,0.6,1.4,1,2.3,1.4c1,0.4,2,0.6,3.2,0.6
		c1.7,0,3-0.3,3.8-0.9c0.8-0.6,1.2-1.4,1.2-2.5c0-0.8-0.2-1.4-0.7-1.8c-0.4-0.4-1-0.8-1.6-1s-1.5-0.4-2.6-0.6
		c-1.2-0.2-2.1-0.4-2.9-0.7c-0.7-0.2-1.3-0.6-1.8-1.2c-0.5-0.5-0.7-1.3-0.7-2.2c0-1.1,0.5-2,1.4-2.8c0.9-0.7,2.2-1.1,4-1.1
		c0.9,0,1.9,0.1,2.8,0.4c0.9,0.3,1.7,0.7,2.2,1.1l-0.4,0.5c-0.6-0.5-1.3-0.8-2.1-1.1c-0.8-0.3-1.7-0.4-2.5-0.4
		c-1.6,0-2.8,0.3-3.5,0.9c-0.8,0.6-1.2,1.4-1.2,2.4c0,0.8,0.2,1.4,0.7,1.9s1,0.8,1.7,1s1.5,0.4,2.6,0.6c1.2,0.2,2.1,0.5,2.8,0.7
		c0.7,0.2,1.3,0.6,1.8,1.1s0.7,1.2,0.7,2.1c0,1.2-0.5,2.1-1.4,2.8c-1,0.7-2.3,1.1-4.2,1.1C317,158.4,315.8,158.3,314.8,157.9z"/>
</g>
</svg>
